<svg xmlns="http://www.w3.org/2000/svg" fill="#fe5b50"  width="86" height="32"    viewBox="0 0 86 32">
  <path fill-rule="evenodd" d="M36.273 2.159c1.536.517 2.262 1.665 2.45 3.183.157 1.285-.101 2.521-.522 3.728-.95 2.72-2.58 5.017-4.68
          7.006-1.826 1.728-3.92 3.053-6.351 3.842-1.894.614-3.832.81-5.811.576a7.812 7.812 0 0
          1-2.211-.575c-2.184-.954-3.022-2.91-2.183-5.091.42-1.094 1.124-1.992 2.014-2.756 1.692-1.456 3.704-2.205 5.915-2.488a14.424 14.424
          0 0 1
          3.587.002c.114.014.23.025.342.053.16.04.342.12.303.294-.026.125-.17.262-.295.32-.15.067-.338.058-.51.076-1.098.121-2.159.38-3.174.805-1.6.67-2.953
          1.65-3.948 3.059-.532.75-.914 1.564-.98 2.49-.016.236-.007.48.034.712.158.914.839 1.53 1.818 1.672.857.124 1.7.05 2.533-.163
          1.345-.345 2.564-.955 3.687-1.737 3.188-2.218 5.67-5.023
          7.334-8.49.374-.78.652-1.594.734-2.458.022-.237.027-.478.008-.714-.093-1.133-.739-1.798-1.908-1.943-1.582-.195-3.14-.023-4.681.346-2.223.53-4.272
          1.464-6.236 2.587-2.174 1.243-4.186 2.71-6.098 4.305-3.014 2.514-5.75 5.295-8.25 8.293-2.064 2.475-3.826 5.148-5.395 7.942-.741
          1.32-1.46 2.651-2.2 3.971-.152.27-.334.53-.541.761-.31.344-.58.302-.824-.092-.187-.3-.232-.636-.234-.976a3.523 3.523 0 0 1
          .326-1.516c1.992-4.307 4.345-8.414 7.188-12.247 1.226-1.653 2.492-3.28 3.892-4.8.644-.701 1.274-1.423 1.98-2.064a31.963 31.963 0 0
          1 3.691-2.863c1.022-.684 2.024-1.402 3.072-2.048 2.855-1.756 5.996-2.746 9.328-3.193 1.678-.225 3.365-.259 5.065-.167.578.116
          1.178.171 1.731.358m6.603 9.627c1.259-.92 2.707-1.436 4.204-1.835.26-.07.545-.067.818-.058.573.017.956.56.796 1.1a.526.526 0 0
          1-.065.156c-.4.561-.882 1.043-1.528
          1.333-.3.133-.482.009-.534-.31-.044-.273-.139-.375-.417-.383-.154-.005-.33.006-.462.075-.53.281-1.09.535-1.563.894a24.247 24.247 0
          0 0-4.36 4.267c-.38.478-.746.967-1.123
          1.448-.14.178-.293.347-.438.523-.733.887-1.916.563-2.42-.127-.214-.292-.266-.574-.062-.898.592-.948 1.163-1.909 1.76-2.855a20.557
          20.557 0 0 1 2.702-3.45c.317-.323.683-.604
          1.047-.878.295-.221.633-.28.969-.066.324.206.434.51.393.877l-.04.385c.161-.099.246-.142.323-.198m6.517
          6.445c-1.236-.096-1.572-.964-1.581-1.764a2.65 2.65 0 0 1 .195-.983c.252-.625.494-1.269.858-1.833 1.106-1.708 2.533-3.038
          4.698-3.337.406-.057.837-.003 1.246.064.402.064.7.492.656.88-.015.127-.1.261-.188.363-.08.093-.203.156-.317.217-1.425.766-2.5
          1.894-3.443 3.155-.28.373-.53.772-.758 1.178-.276.493-.094.786.485.804a3.43 3.43 0 0 0 1.67-.387c1.923-.975 3.276-2.463
          4.095-4.408.117-.281.157-.6.192-.904.041-.344-.095-.631-.38-.851a1.713 1.713 0 0 1-.342-.32c-.23-.315-.12-.59.269-.64 1.212-.16
          2.026.478 2.25 1.495.162.734-.001 1.426-.288 2.099-.493 1.156-1.29 2.088-2.259 2.894-1.01.84-2.124 1.506-3.385 1.926a7.988 7.988 0
          0 1-3.457.373c-.072-.007-.144-.015-.216-.02m14.578-3.991c1.264-.306 2.473-.765 3.665-1.266.712-.302 1.402-.658
          2.09-1.012.225-.117.424-.292.608-.467.08-.075.155-.25.117-.324a.468.468 0 0 0-.331-.212 2.36 2.36 0 0
          0-.683.058c-.906.208-1.74.6-2.565 1-.996.482-1.967 1.008-2.832
          1.699-.173.138-.358.271-.44.477.128.17.255.074.37.047m3.895-4.21c.991-.37 2.013-.603 3.076-.65.61-.027 1.215.02
          1.79.242.58.225.773.644.565 1.219-.346.952-1.016 1.659-1.832 2.243-1.428 1.023-3.022 1.694-4.738
          2.104-.304.073-.606.151-.968.241.113.115.168.195.243.245.974.634 1.753 1.46 2.467 2.353.203.256.43.497.617.763.77 1.091 1.86 1.588
          3.184 1.713 1.942.182 3.88.397
          5.821.6.13.013.259.025.387.048.164.03.297.102.352.337-.146.044-.285.115-.427.124-.258.016-.52.002-.78-.007-1.862-.064-3.725-.145-5.587-.192-1.272-.032-2.543-.025-3.815-.027-1.748-.003-3.497-.012-5.244.008-1.315.014-2.629.067-3.942.11-1.285.042-2.57.08-3.854.143-1.4.07-2.797.154-4.194.256-1.426.104-2.851.217-4.273.36-2.055.204-4.109.412-6.155.672-1.76.222-3.514.496-5.263.792-2.648.448-5.25
          1.09-7.828 1.831-.788.227-1.583.433-2.38.631a5.35 5.35 0 0
          1-.813.117c-.285.025-.553-.022-.718-.29-.165-.27-.077-.514.084-.748a2.908 2.908 0 0 1 1.23-1.04c.856-.373 1.719-.734 2.6-1.041
          2.917-1.015 5.92-1.704 8.963-2.252a73.328 73.328 0 0 1 7.514-.944c2.015-.152 4.037-.248 6.056-.332 1.66-.068 3.322-.123 4.982-.11
          1.964.016 3.928.097 5.892.176 2.136.087 4.272.204
          6.407.307.082.004.164-.008.32-.018-.105-.111-.16-.183-.228-.239-.308-.254-.643-.482-.928-.757-.877-.856-1.732-1.736-2.606-2.595a4.797
          4.797 0 0 0-.764-.616c-.464-.297-.736-.247-1.09.16-.495.568-.975 1.148-1.474 1.714-.441.501-.964.883-1.65
          1.019-.483.095-.953.039-1.416-.078-.494-.125-.922-.583-.407-1.192.422-.5.865-.983 1.296-1.475 2.505-2.858 5.076-5.655
          7.797-8.32a85.627 85.627 0 0 1 5.358-4.859c1.26-1.042 2.6-1.97 4.168-2.537.244-.088.492-.164.743-.229.096-.024.204 0 .357
          0-.11.315-.309.482-.49.653-.653.617-1.315 1.225-1.973 1.837-2.238 2.082-4.325 4.3-6.349
          6.578-.244.277-.463.574-.69.866-.057.073-.094.163-.14.244.29-.002.52-.074.747-.158m11.422
          2.322c-.096-.045-.285.013-.389.083-.714.478-1.427.958-2.12 1.463a7.207 7.207 0 0 0-2.048 2.262 3.29 3.29 0 0
          0-.278.615c-.077.237.004.355.256.374.258.018.523.022.777-.015 1.586-.23 2.903-.98 4.053-2.035.573-.526 1.044-1.127
          1.315-1.857.056-.15.072-.313.117-.517-.639-.057-1.178-.133-1.683-.373m-7.32 4.195c.733-2.332 2.231-4.061 4.34-5.322a4.536 4.536 0
          0 1 2.17-.646c.25-.01.43-.082.596-.273.416-.478.979-.696 1.606-.72.358-.014.722.028 1.077.082.357.055.646.26.848.544.274.383.64.48
          1.092.447.66-.049 1.237-.243 1.71-.712.271-.27.477-.204.56.172.102.469-.028.892-.319
          1.27-.38.493-.897.81-1.494.957-1.012.254-.919.324-1.212 1.062-.35.884-.975 1.587-1.678 2.225-1.64 1.488-3.527 2.528-5.74
          2.965-.667.132-1.339.215-2.094.159-1.297-.105-1.855-.964-1.463-2.21" />
</svg>
