<svg id="EKD" xmlns="http://www.w3.org/2000/svg" xmlns:xlink="http://www.w3.org/1999/xlink" width="103.948" height="70.992" viewBox="0 0 103.948 70.992">
  <defs>
    <clipPath id="clip-path">
      <rect id="Rectangle_297" data-name="Rectangle 297" width="103.948" height="70.992" fill="none"/>
    </clipPath>
  </defs>
  <g id="Group_11090" data-name="Group 11090" clip-path="url(#clip-path)">
    <path id="Path_6716" data-name="Path 6716" d="M138.346,18.392c-.239-.476-1.212-.329-1.212-.329l.623,1.093s.958-.026.589-.764" transform="translate(-74.274 -9.709)" fill="#000f9f"/>
    <path id="Path_6717" data-name="Path 6717" d="M18.788,42.264a.605.605,0,0,0,.392-.254c.2-.23.382-.374.98-.13a1.369,1.369,0,0,1,.83.8,2,2,0,0,1-.159,1.441l-.032.061-.066-.017a.817.817,0,0,0-.53-.03,1.515,1.515,0,0,1-.463.06h0c-.785,0-1.146-.827-1.188-1.348-.028-.333.061-.549.237-.579M22.2,46.453l.207-.1-.088.216a3.907,3.907,0,0,1-1.375,1.326l-.273.163.153-.28a3.539,3.539,0,0,1,1.377-1.32m.98-3.507.168.041c-.244,1.647-.512,3.82-.73,5.662l.125.116a2.45,2.45,0,0,1,.661,1.137l.04.177.025.128-.053-.055-.16-.171a2.7,2.7,0,0,1-.657-1.142v-.012c-.232,1.976-.4,3.528-.4,3.558l-.173-.011c.012-.9.046-1.73.093-2.5a4.22,4.22,0,0,1-1.324,1.22l-.079.048c.012.175.024.349.039.523l-.171.025a17.991,17.991,0,0,1-.272-2.438l-.216-.231a3.925,3.925,0,0,1-.957-1.657l-.026-.232.171.158a3.56,3.56,0,0,1,.959,1.652l.068.3a27.054,27.054,0,0,1,.139-4.485l.173.013c0,.026-.073,1.962-.005,4.3l.083-.151a3.542,3.542,0,0,1,1.377-1.32l.207-.1-.088.216a3.9,3.9,0,0,1-1.375,1.326l-.2.12c.009.283.02.572.033.864l.023-.042a3.539,3.539,0,0,1,1.377-1.32l.165-.083a27.636,27.636,0,0,1,.967-5.625m.948,5.865-.218-.233a3.928,3.928,0,0,1-.957-1.658l-.026-.231.171.157a3.566,3.566,0,0,1,.959,1.653Zm-.32.783-.031-.032-.022-.023-.159-.17a3.388,3.388,0,0,1-.825-1.43l-.026-.232.171.157a3.075,3.075,0,0,1,.827,1.425l.045.2h0l0,.022Zm.165.833a.945.945,0,0,1,.582,1.1,3.659,3.659,0,0,1-.074.368.786.786,0,0,1-.245-.45,2.231,2.231,0,0,0-.309-.745,1.44,1.44,0,0,0-.122-.158.839.839,0,0,0-.2-.175h0a1.047,1.047,0,0,1,.224.023,1.074,1.074,0,0,1,.148.042m-.644.87a3,3,0,0,1-.73-1.267l-.026-.231.17.157.024.023a2.065,2.065,0,0,1,.627,1.388Zm-3.306-.9a3.925,3.925,0,0,1-.957-1.657l-.026-.232.171.157a3.568,3.568,0,0,1,.96,1.653l.07.312Zm-.81-4.465a3.569,3.569,0,0,1,.96,1.653l.07.312-.217-.233a3.922,3.922,0,0,1-.957-1.658l-.026-.231Zm-1-1.743a2.565,2.565,0,0,1-.059-.764l.039-.406.129.387a1.574,1.574,0,0,0,1.989,1.164l.065.161a2.6,2.6,0,0,1-1.149.345A1.047,1.047,0,0,1,18.845,45c.043.741-.589,1.744-.59,2.531,0,1.273.656,1.934.569,3.328-.279,4.466.115,2.392,1.955,2.534,2.066.149,2.643-.894,2.751-1.84h0l0-.035v-.007h0l0-.03a3.417,3.417,0,0,0,.011-.372.6.6,0,0,1,.27.351,1.249,1.249,0,0,0,.74.942,2.4,2.4,0,0,0,.853.781l-.63.7c.68.017,1.486-.5,1.486-.947s-.4.144-.958-.39,1.6-1.273,1.6.309-3.064,1.594-2.9,3.49c.116,1.31,1.341,1.7,3.546.738a.738.738,0,0,0-.247-.631c-.1.049-.195.1-.292.145-1.356.564-1.406-1.045-.061-1.623,1.091-.564.683-1.222.683-1.222s-.051.534-.928.879a2.191,2.191,0,0,0-1.479,2.289s-1.773-1.212,1.387-2.69c2.3-1.076-.223-2.711-.223-2.711s.868-.347.1-.8c-.9-.531-.185-2.145-.185-2.145s-1.649,1.265-.426,2.508a3.051,3.051,0,0,0-.8.725,2.273,2.273,0,0,0-.243-1.454,2.789,2.789,0,0,0-.681-.675A2.433,2.433,0,0,0,23.8,49.5l.017-.05c1.014-1.783,3.483-6.557,2.022-8.437-1.813-2.334-3.3-1.562-4.606-1.563a2.729,2.729,0,0,1-2.079-1.315,2.975,2.975,0,0,0-.653,2.136c.091,1.266.027,2.24-.817,2.587a27.618,27.618,0,0,1-5.2.558.206.206,0,0,0,.013.412,33.84,33.84,0,0,1,5.182.221,2.493,2.493,0,0,1,.534.147" transform="translate(-6.659 -20.519)" fill="#000f9f"/>
    <path id="Path_6718" data-name="Path 6718" d="M34.13,34.143a3.777,3.777,0,0,0,.673-.774L35,32.981l-.029.433a1.035,1.035,0,0,1-.757.879l-.364.1Zm4.98.593.255-.361-.1.432a5.15,5.15,0,0,1-2.233,2.73l-.109-.135a21.383,21.383,0,0,0,2.187-2.666m2.065,2.36c-3.561,5.271-5.586,5.677-6.125,5.677a.647.647,0,0,1-.144-.013l-.421-.1.427-.07c1.91-.314,6.082-5.545,6.124-5.6Zm.6,1.689c-4.191,5.282-6.106,5.987-6.829,5.987a.6.6,0,0,1-.367-.091l-.221-.178.282.023c.674.053,2.1-.938,4.111-2.865,1.535-1.468,2.878-2.973,2.891-2.987ZM43,41.316l.128.118c-5.182,6.117-7.461,6.643-8.09,6.643a.634.634,0,0,1-.187-.022l-.253-.084.253-.083c2.6-.845,8.094-6.516,8.149-6.573m-7.334-2.505a1.028,1.028,0,0,1-.942.606h-.044L34.3,39.4l.346-.154a3.742,3.742,0,0,0,.875-.532l.3-.31Zm-5.948,5.267a1.813,1.813,0,0,1,.661.578,17.313,17.313,0,0,1,1.675-2.809,7.774,7.774,0,0,0,.248-8.1,6.9,6.9,0,0,1,1.482,3.5s2.474-.032,2.935.625a3.207,3.207,0,0,1,.44,1.3l.313-.3a27.42,27.42,0,0,0,2.781-3.417l.148.09c-1.391,2.7-2.772,3.438-2.83,3.468l-.4.208a8.474,8.474,0,0,0,.311,1.276,8.212,8.212,0,0,1-.862-1.616c-.317-.948-1.056-1.094-2.768-1.1a13.431,13.431,0,0,1,.408,3.078l.605-.137a2.952,2.952,0,0,0,1.363-.8l.313-.343-.168.434a1.512,1.512,0,0,1-1.411.881h-.082l-.62-.026a24.4,24.4,0,0,1-.186,3.976,12.666,12.666,0,0,0-.014,1.391l.563-.058c.022,0,2.324-.319,7.525-6.118l.135.109a31.3,31.3,0,0,1-2.669,3.2c-1.913,1.986-3.512,2.991-4.758,2.991a2.158,2.158,0,0,1-.234-.012l-.56-.06a13.4,13.4,0,0,0,.555,3.277,40.094,40.094,0,0,0,9.544-8.128s-1.365-.281-2.3-3.748a6.446,6.446,0,0,0-3.839-4.179l-.038.339a4.025,4.025,0,0,1-1.865,2.747L35.506,37l.5-.522a10.322,10.322,0,0,0,1.807-2.656l.136-.324a7.9,7.9,0,0,0-.87-.295l-.143.4A4.781,4.781,0,0,1,34.2,36.572a14.649,14.649,0,0,0,2.583-3.049l.237-.337a9.817,9.817,0,0,0-4.813,0,9.184,9.184,0,0,1,2.966-1.033c.369-.1-.255.6,2.11.22.387-.03-.49.623,1.793.521.268.021-.505.485,1.085.794.462.089.308.357-.512.11-.687-.207-1.031-.031,1.608.8.326.134.319.37-.7,0s1,1.085,1.761,1.88c-.408.287-.331.825.251,1.373s0,.219.015.63a3.147,3.147,0,0,0,1.859,2.7l.449-.472c-.094-.343-.214-.95-.272-1.232a2.033,2.033,0,0,1-1.272-.079,2.148,2.148,0,0,0,1.228-.144,15.377,15.377,0,0,1-.081-1.612c.052-.976,1.407-1.509,1.921-2.19a1.836,1.836,0,0,0-.264-.483A17.883,17.883,0,0,1,43.1,38.091s2.247-2.1,2.67-3.589a.407.407,0,0,0,0-.209l-.5.448c-.091.094-.412.406-.608.406H44.64a.213.213,0,0,1-.151-.08.665.665,0,0,1-.077-.425l.006-.043a5.53,5.53,0,0,1-1.833,1.875s2.352-2.094,1.867-3.732c-.165-.557-1.43-1.569-1.43-1.569.5,2.024-1.313,3.925-1.313,3.925s1.632-2.717.816-4.215A5.739,5.739,0,0,0,40.8,29.651a4.906,4.906,0,0,1-.1,3.925s.584-2.937-.447-4.106a5.9,5.9,0,0,0-1.947-.838,6.216,6.216,0,0,1,1.037,4.035s-.5-3.529-1.606-4.091a8.653,8.653,0,0,0-2.028-.4,6,6,0,0,1,1.783,3.741s-1.21-3.35-2.4-3.672a8.2,8.2,0,0,0-2.032.042,5.846,5.846,0,0,1,2.371,3.365s-1.772-3.087-3-3.193a7.122,7.122,0,0,0-1.843.354,5.876,5.876,0,0,1,2.7,3.035s-2.226-2.757-3.462-2.744a4.574,4.574,0,0,0-1.514.5,6.12,6.12,0,0,1,3.138,2.766s-2.581-2.546-3.807-2.388a5.1,5.1,0,0,0-1.228.8,7.226,7.226,0,0,0-4.075-2.035,2.88,2.88,0,0,0,.176.923s.048-1.187,1.372.166c.955.975.71,1.328,1.773,1.131.843-.157.488,1.356.488,1.356a3.769,3.769,0,0,1-3.262-1.938,3.084,3.084,0,0,0,1.849,2.156c.994,1.133,2.8,1.162,3.868,1.061a5.5,5.5,0,0,0-1.009-.942,3.609,3.609,0,0,1,1.809.867.409.409,0,0,0,.488,0,10.65,10.65,0,0,1,3.161-1.375s.408-.033,0,.189-2.363.942-2.9,1.644a5.053,5.053,0,0,1,2.02,2.329c.368,1.318-.028,3.484-2.192,7.246a5.276,5.276,0,0,0-.261.515" transform="translate(-12.096 -15.165)" fill="#000f9f"/>
    <path id="Path_6719" data-name="Path 6719" d="M34.833,69.711c-.024.123-.188,1.1.632.836a2.251,2.251,0,0,0,1.189-1.76,1.184,1.184,0,0,1-.716-.687c-.017.11-.034.223-.055.343a1.552,1.552,0,0,1-1.05,1.268" transform="translate(-18.85 -36.647)" fill="#000f9f"/>
    <path id="Path_6720" data-name="Path 6720" d="M30.683,71.859a2.626,2.626,0,0,0-1.37.232h0a5.868,5.868,0,0,0,1.363.529c.136.026.7.082.775-.73,0-.026.006-.046.009-.069a2.934,2.934,0,0,1-.777.037" transform="translate(-15.876 -38.65)" fill="#000f9f"/>
    <path id="Path_6721" data-name="Path 6721" d="M30.679,62.379l-.136.081c.012.251.026.5.042.756a3.565,3.565,0,0,1,1.35-1.274l.084-.042q.032-.485.072-.936l-.037.09a3.907,3.907,0,0,1-1.375,1.326" transform="translate(-16.543 -32.807)" fill="#000f9f"/>
    <path id="Path_6722" data-name="Path 6722" d="M107.714,114.415c-1.107-.067-2.452-2.04-5.805-.891a3.149,3.149,0,0,1,1.261-1.43s-4.955-.18-5.195.07a6.893,6.893,0,0,0-1.618,4l4.061-.863-.312-.505.657.227.308-.569.189.627.661.036-.515.444.2.654-.6-.334-.365.543-.093-.606-3.392.921c1.593.307,5.29.843,7.83-.162,3.316-1.313,6.176-2.077,9.493-1.6-2.713-1.711-5.454-.531-6.767-.559" transform="translate(-52.188 -60.288)" fill="#000f9f"/>
    <path id="Path_6723" data-name="Path 6723" d="M105.058,101.135A76.567,76.567,0,0,1,108,92.7a.556.556,0,0,0-.595.052,3.791,3.791,0,0,0-.485.409c-1.3,1.2-3.166.862-3.995,1.533-.658.533-.643,1.958-1.19,2.605a2.767,2.767,0,0,0-.589.719c-.144.381.042.8.034,1.211-.015.8-.969,1.371-1.622,1.822a51.727,51.727,0,0,1,5.5.085" transform="translate(-53.921 -49.849)" fill="#000f9f"/>
    <path id="Path_6724" data-name="Path 6724" d="M46.017,77.906c.123-.058.248-.119.376-.185a.741.741,0,0,0-.3-.635l-.319.169a.941.941,0,0,1,.243.651" transform="translate(-24.792 -41.483)" fill="#000f9f"/>
    <path id="Path_6725" data-name="Path 6725" d="M47.523,76.273q-.177.1-.354.2a.908.908,0,0,1,.295.642c.106-.058.214-.118.323-.181a.739.739,0,0,0-.264-.662" transform="translate(-25.547 -41.045)" fill="#000f9f"/>
    <path id="Path_6726" data-name="Path 6726" d="M59.951,72.632s-1.076-2,1.671-5.49a9.349,9.349,0,0,1-.559-1.212s-6.987,9.349-11.15,5.458l-.141,2.451s6.307-2.626,15.274.5a5.1,5.1,0,0,1,0-3.409s-2.814,1.888-5.1,1.7" transform="translate(-26.957 -35.479)" fill="#000f9f"/>
    <path id="Path_6727" data-name="Path 6727" d="M46.148,82.948c.109.028,1.277.384,1.278-.547a9.424,9.424,0,0,0-1.278.547" transform="translate(-24.991 -44.343)" fill="#000f9f"/>
    <path id="Path_6728" data-name="Path 6728" d="M76.138,71.608c-.184-.059-.381.1-.544-.006a4.841,4.841,0,0,1-1.439-1.994c-2.2,2.737-1.633,4.436-1.633,4.436a5.068,5.068,0,0,0,3.616-2.435" transform="translate(-39.243 -37.459)" fill="#000f9f"/>
    <path id="Path_6729" data-name="Path 6729" d="M89.543,81.358s-1.681-1.014-1.854-1.916c-.188-.983,1.958-2.192,1.958-2.192s-2.7.608-2.858,1.722c-.113.812,1.551,2.262,2.754,2.386" transform="translate(-47.004 -41.571)" fill="#000f9f"/>
    <path id="Path_6730" data-name="Path 6730" d="M91.094,79.647s-1.6.254-1.483,1.075c.117.842,1.8,1.652,1.8,1.652a6.478,6.478,0,0,1-1.4-1.481c-.282-.681,1.077-1.246,1.077-1.246" transform="translate(-48.532 -42.861)" fill="#000f9f"/>
    <path id="Path_6731" data-name="Path 6731" d="M13.767,10.185h0a.28.28,0,0,0,.36-.165l.134-.356a.284.284,0,0,0-.154-.361.28.28,0,0,0-.37.16l-.135.356a.283.283,0,0,0,.165.366" transform="translate(-7.357 -4.995)" fill="#000f9f"/>
    <path id="Path_6732" data-name="Path 6732" d="M5.879,7.371l.367-.945A4.724,4.724,0,0,1,5.14,4.921,14.878,14.878,0,0,1,0,4.428l.01,0A15.013,15.013,0,0,1,4.044,7.679a4.651,4.651,0,0,1,1.835-.307" transform="translate(0 -2.383)" fill="#000f9f"/>
    <path id="Path_6733" data-name="Path 6733" d="M142.2,59.152s-15.922-6.581-20.841-8.527-6.012-3.136-6.012-3.136a2.658,2.658,0,0,0-.972,2.448c1.332-.074,5.462,1.564,5.462,1.564l22.034,8.394a.675.675,0,0,0,.33-.742" transform="translate(-61.933 -25.556)" fill="#000f9f"/>
    <path id="Path_6734" data-name="Path 6734" d="M79.3,122.981c-.29.655,2.342,1.386,3.442,1.549s.9-.54.9-.54c-1.08.273-4.339-1.008-4.339-1.008" transform="translate(-42.94 -66.18)" fill="#000f9f"/>
    <path id="Path_6735" data-name="Path 6735" d="M91.324,92.179c-.438-.185-.3-.777-.415-.717a33.457,33.457,0,0,0-1.422,4.448,1.182,1.182,0,0,0,.788.274c.558-2,1.3-3.9,1.048-4.005" transform="translate(-48.468 -49.217)" fill="#000f9f"/>
    <path id="Path_6736" data-name="Path 6736" d="M89.709,102.065a1.4,1.4,0,0,1-.578-.172.241.241,0,0,0-.347.139v0a.244.244,0,0,0,.088.272,1.352,1.352,0,0,0,.83.245.245.245,0,0,0,.008-.488" transform="translate(-48.08 -54.815)" fill="#000f9f"/>
    <path id="Path_6737" data-name="Path 6737" d="M89.389,103.566a1.133,1.133,0,0,1-.815-.274c-.242.945-.463,1.4,0,1.533s.571-.246.816-1.259" transform="translate(-47.826 -55.585)" fill="#000f9f"/>
    <path id="Path_6738" data-name="Path 6738" d="M87.874,108.234a.339.339,0,1,0,.173.379.3.3,0,0,0-.173-.379" transform="translate(-47.413 -58.241)" fill="#000f9f"/>
    <path id="Path_6739" data-name="Path 6739" d="M89.224,107.589a.314.314,0,0,0,.176-.394.309.309,0,0,0-.426-.05.314.314,0,0,0-.176.394.309.309,0,0,0,.426.05" transform="translate(-48.081 -57.627)" fill="#000f9f"/>
    <path id="Path_6740" data-name="Path 6740" d="M87.338,106.865c.08.176.248.27.376.211a.316.316,0,0,0,.086-.424c-.08-.176-.248-.27-.376-.211a.315.315,0,0,0-.086.424" transform="translate(-47.281 -57.27)" fill="#000f9f"/>
    <path id="Path_6741" data-name="Path 6741" d="M188.3,32.182a12.688,12.688,0,0,1,5.271,2.878,6.649,6.649,0,0,0,5.68.962c-1.386-.22-1.358-1.343-3.668-3.048-2.721-2.01-7.283-.791-7.283-.791" transform="translate(-101.987 -17.121)" fill="#000f9f"/>
    <path id="Path_6742" data-name="Path 6742" d="M216.636,41.748a3.769,3.769,0,0,0-3.628-.892c-.649.188-1.944.7-1.944.7a6.638,6.638,0,0,1,2.527.768c1.779,1.055,4.672.512,4.672.512a5.479,5.479,0,0,1-1.628-1.086" transform="translate(-114.316 -21.914)" fill="#000f9f"/>
    <path id="Path_6743" data-name="Path 6743" d="M109.149,70.252c-.26.058-.328.206-.334.335a.063.063,0,0,0,.1.055c.044-.034.121-.047.254,0,.347.123-2.576,5.7-2.254,5.9.248.154,2.72-5.116,3.135-6.7a1.6,1.6,0,0,1-.9.414" transform="translate(-57.893 -37.582)" fill="#000f9f"/>
    <path id="Path_6744" data-name="Path 6744" d="M108.722,87.221s-1.423.547-1.328.917c0,0,0,.165.391.2s.176.507.564.4-.163-.514.122-.842.47-.769.252-.678" transform="translate(-58.164 -46.93)" fill="#000f9f"/>
    <path id="Path_6745" data-name="Path 6745" d="M111.5,80.482c-.118,1.4-.589,2.5-1.2,2.823l-.094-.146c.007-.006.707-.589.886-2.638a4.963,4.963,0,0,1,1.6-3.185l.119.126a5.851,5.851,0,0,0-1.312,3.021m.925-3.44c-.9.629-2.985,2.63-2.757,4.064.271,1.7-.029,2.8-1.5,2.443-.535-.2-.2-.521-.589-.658,0,0-.383-.082-.383.383s.966,1.589,3.139.631.259-3.453,3.6-7.12a2.8,2.8,0,0,0-1.505.255" transform="translate(-58.057 -41.316)" fill="#000f9f"/>
    <path id="Path_6746" data-name="Path 6746" d="M124.344,76.812c-.744-.2-.771-.71-1.24-.69a.384.384,0,0,0-.4.451.864.864,0,0,0-.822.535s.607-.03,1.366-.115a8.533,8.533,0,0,0,1.1-.18" transform="translate(-66.013 -40.964)" fill="#000f9f"/>
    <path id="Path_6747" data-name="Path 6747" d="M128.965,74.927c.977-.048.792-.225.792-.225s-.127-.349-.832-.315-.8.394-.8.394-.133.193.844.145" transform="translate(-69.389 -40.029)" fill="#000f9f"/>
    <path id="Path_6748" data-name="Path 6748" d="M129.354,76.025c.936-.368-.178-.576-.178-.576s.3.232-1.034.3-1.015-.2-1.015-.2-1.1.239-.121.591a4.242,4.242,0,0,0,2.348-.115" transform="translate(-68.569 -40.602)" fill="#000f9f"/>
    <path id="Path_6749" data-name="Path 6749" d="M133.724,76.286a6.05,6.05,0,0,1,1.141-.1c.656,0,.765-.108.459-.467,0,0-1.6-.068-1.6.564" transform="translate(-72.427 -40.748)" fill="#000f9f"/>
    <path id="Path_6750" data-name="Path 6750" d="M137.447,75.492c-.031.38.56.426.713.257.285-.314-.061-1-.468-1a1.888,1.888,0,0,0-.788.206.506.506,0,0,1,.543.533" transform="translate(-74.149 -40.227)" fill="#000f9f"/>
    <path id="Path_6751" data-name="Path 6751" d="M140.8,76.049c9.146-.16,11.337,3.968,12.432,4.7a1.117,1.117,0,0,0,1.814-.636c-2.331.464-3.264-2.09-3.264-2.09a32.63,32.63,0,0,1-3.132-1.187,24.583,24.583,0,0,0-8.336-1.441s.013.658.485.658" transform="translate(-75.996 -40.57)" fill="#000f9f"/>
    <path id="Path_6752" data-name="Path 6752" d="M106.32,119.226a.109.109,0,1,0-.109.109.109.109,0,0,0,.109-.109" transform="translate(-57.467 -64.101)" fill="#000f9f"/>
    <path id="Path_6753" data-name="Path 6753" d="M89.271,23.3c-.531.383-.738.775-.42.661a4.531,4.531,0,0,0,1.07-.785c.387-.41-.061-.3-.65.124" transform="translate(-48.042 -12.332)" fill="#000f9f"/>
    <path id="Path_6754" data-name="Path 6754" d="M92.637,21.45c-.523.212-.752.5-.451.463a3.719,3.719,0,0,0,1.056-.439c.4-.263-.024-.26-.605-.024" transform="translate(-49.857 -11.449)" fill="#000f9f"/>
    <path id="Path_6755" data-name="Path 6755" d="M86.294,22.815c-.044.142,1.237.145,1.237.145-.02-.452-.693-.124-.632-.391A6.275,6.275,0,0,1,89.3,20.722c.9-.392,1.91-.6,1.529-.657a6.592,6.592,0,0,0-4.54,2.75" transform="translate(-46.737 -10.798)" fill="#000f9f"/>
    <path id="Path_6756" data-name="Path 6756" d="M88.519,19.829c-.677-.166-.143-1.1-.63-.726,0,0-1.358.852.189,1.444,0,0,1.2-.533.441-.718" transform="translate(-47.303 -10.232)" fill="#000f9f"/>
    <path id="Path_6757" data-name="Path 6757" d="M79.053,12.824a10.44,10.44,0,0,1,2.594-.536,14.866,14.866,0,0,0-2.67.982,5.25,5.25,0,0,1-.3,1.074,7.734,7.734,0,0,1,3.608-.655c-.354-1.653.842-2.708.807-2.97a.246.246,0,0,0-.387-.155,3.864,3.864,0,0,1-2.936,1.63c-.479.06-.655.2-.719.631" transform="translate(-42.614 -5.662)" fill="#000f9f"/>
    <path id="Path_6758" data-name="Path 6758" d="M81.053,21.408a2.4,2.4,0,0,0-1.282.733,1.058,1.058,0,0,0,.212.567,2.912,2.912,0,0,0,1.624-.136,1.774,1.774,0,0,1,.924.794,2.3,2.3,0,0,1,1.2-1.587s-1.107-.195-.91-.855c-.512.367-.869.295-1.764.484" transform="translate(-43.205 -11.26)" fill="#000f9f"/>
    <path id="Path_6759" data-name="Path 6759" d="M79.93,18.859c-.132.054-.218.116-.234.184a5.13,5.13,0,0,1,.025,1.351,3.4,3.4,0,0,1,1.716-.632,3.121,3.121,0,0,0,1.669-.574h0c.025-.025.05-.051.079-.077.154-.226-.1-.367-.534-.44-.064.146-.136.284-.127.145a.366.366,0,0,0-.039-.169,5.7,5.7,0,0,0-.575-.036c-.069.168-.176.4-.166.236a.435.435,0,0,0-.072-.236c-.158,0-.318.008-.476.019a.1.1,0,0,0,0,.02s-.238.624-.222.377a.605.605,0,0,0-.159-.361l-.114.014c-.3.048-.336.221-.336.221s-.238.624-.222.377a.7.7,0,0,0-.208-.421" transform="translate(-43.165 -10.015)" fill="#000f9f"/>
    <path id="Path_6760" data-name="Path 6760" d="M93.189,80.113c.044-.172-.185-.209-.5-.155a1.028,1.028,0,0,0-.775.65c-.1.3-.157,0-.05-.363-.391.207-.687.495-.569.791.248.63,1.774,1.493,1.774,1.493a7.4,7.4,0,0,1,.119-2.416" transform="translate(-49.433 -43.016)" fill="#000f9f"/>
    <path id="Path_6761" data-name="Path 6761" d="M85.126,6.626a.324.324,0,0,1-.095.23.32.32,0,0,1-.456,0,.323.323,0,0,1-.094-.23.327.327,0,0,1,.095-.23.32.32,0,0,1,.456,0,.324.324,0,0,1,.094.23m.589-.095a.29.29,0,0,1,.412,0,.3.3,0,0,1,0,.415.29.29,0,0,1-.412,0,.3.3,0,0,1,0-.415m1.2.2h0a.25.25,0,1,1-.248.249.249.249,0,0,1,.248-.249M97.566,2.551a.2.2,0,0,1,.155-.065.221.221,0,0,1,.154.376.215.215,0,0,1-.154.064.22.22,0,0,1-.154-.376M82.355,4.434a1.789,1.789,0,0,0-.581,1.054,1.187,1.187,0,0,0,1.333-.03c.5-.38.781-1.047,1.091-.975.536.123,1.1.418.606.976a2.974,2.974,0,0,0-.637,2.6A14.357,14.357,0,0,1,89.88,9.72c.856.329,1.2.062.611-.164a3.492,3.492,0,0,1-.571-.253,2.152,2.152,0,0,1-.572-.418,2.531,2.531,0,0,1-.769-1.907,1.52,1.52,0,0,0-.539,1.292c-.576-.575-.347-1.881-.347-1.881a1.565,1.565,0,0,0-.621,0,5.26,5.26,0,0,0,.958-.75s.239-.054.292.375.284-.241.152-.641a.838.838,0,0,1,.51.508c.077.306.364-.678-.656-1.576A5.54,5.54,0,0,0,85.7,3.249s.759-1.733,4.566-.285C91.673,3.5,91.714,4.32,92.3,4.3s.428-.39.978.165.469.007.6-.061.448.206.381-.232.082-.274.245-.37.395-1.382-1.14-2.054,0-.769,1.259.617c.4.438.942.247,1.01,1.027s.421.671.435.26.571-.315.408.069-.2.561.652.315.3-.369.68-.63.639.219.965-.041-.122-.89-.706-1.164-.394-.781.2-.4,2.363,3.233,5.474,3.234c2.215,0,.829-.6,1.169-1s1.468-.448,1.291-.881-.87.237-1.128-.119.788-.657.789-1.2S104.028-.1,103.633.273c-.272.246.13.43-.129.544-.219.1-.237-.369-1.069-.445-.763-.07-.686.33.016.407.763.084,1.25,1.329-.395,1.328S100.158.12,96.365.118c-.763,0,.963.493.528.794S96.109.1,95.619.183s-.655-.148-.866.051c-.312.294.876.257.876.648S93.7-.451,89.582.115c-1.291.177,2.649.837,2.282,1.411s-4.516-2.679-6.913,1.722c-2.343.065-3.867.939-3.583,1.756a2.6,2.6,0,0,1,.987-.57" transform="translate(-44.052 0)" fill="#000f9f"/>
    <path id="Path_6762" data-name="Path 6762" d="M188.235,137.815a.13.13,0,0,1-.093.036.336.336,0,0,1-.154-.051,2.1,2.1,0,0,0-.816-.195l-.074,0-.01-.075a.448.448,0,0,1,.269-.424c.071-.018.672-.032.751.128l.009.018c.168.332.2.484.118.564m-3-1.791a.363.363,0,0,1-.177.034,1.239,1.239,0,0,1-.575-.151,1.168,1.168,0,0,0-.442-.136c-.192-.03-.408-.066-.407-.3s.156-.252.259-.269a.325.325,0,0,0,.169-.063.525.525,0,0,0,.1-.119.2.2,0,0,1,.214-.108h.011c.137.024.143.148.146.23.006.14.014.332.423.5.273.116.333.188.338.26a.119.119,0,0,1-.06.111m5.049.517a5.242,5.242,0,0,1-2.119-2.384c-.682-1.436-1.318-.086-1.821-.232-.824-.24.231-.96-.828-1.9s-1.155-3.389-1.44-3.923a1.67,1.67,0,0,0-.848-.624.436.436,0,0,0-.381.1c-.1.079-.229.285-.229.808a3.858,3.858,0,0,0,.419,1.625,2.607,2.607,0,0,1,.234.472l.034.1c.137.41.227.681.466.745.2.054.394.171.375.312-.009.067-.069.144-.283.147h-.038c-.6,0-.727-.346-.873-.747a2.994,2.994,0,0,0-.3-.649,4.9,4.9,0,0,1-.537-2.607.4.4,0,0,0-.387-.512h0c-.747-.006-1.3.544-1.039,1.216a18.992,18.992,0,0,1,1.362,4.56c.325,2.3,1.058,2.506,2.363,3.205s1.263,1.808,2.935,1.768,2.4,1.932,3.138,1.357a1.96,1.96,0,0,0-.2-2.834" transform="translate(-97.83 -68.488)" fill="#000f9f"/>
    <path id="Path_6763" data-name="Path 6763" d="M176.438,128.79l.132.509-.289-.439a17.97,17.97,0,0,0-2.242-2.6l-.325-.318.418.175a4.328,4.328,0,0,1,2.305,2.675m-8.575-4.6a.984.984,0,0,1-.473.125.9.9,0,0,1-.3-.05,1.255,1.255,0,0,1-.716-.755c-.319-.745-1.812-3.19-1.827-3.214l-.208-.34.33.222a6.779,6.779,0,0,1,1.739,2.353c.9,1.689,1.368,1.507,1.372,1.5l.082.154h0m-4.026-5.7a2.055,2.055,0,0,1-.045-.523.86.86,0,0,0-.281-.713,1.062,1.062,0,0,1,.012-1.028l.144-.261.018.3a1.569,1.569,0,0,0,.3.944,1.342,1.342,0,0,1,.268.832,1.709,1.709,0,0,0,.433,1.21l.474.406-.566-.26s-.026-.012-.07-.036a1.281,1.281,0,0,1-.681-.867m9.135,6.65c-2.065,0-1.6,1.532-2.528,1.532s.653-.821-.543-1.862-1.521-1.042-2.309-2.356a29.194,29.194,0,0,1-2.8-5.067c-.516-1.616-2.321-3.473-3.287-3.179-1.691.515-2.123-.388-3.55-.258-2.161.2-3.981-.194-4.388-1.311a2.152,2.152,0,0,1-1.713,1.722c-1,.261-.6,1.568-2.009,1.786-.912.141-1.946-.9-3.767.111-1.1.611-2.57,1.168-4.848-.691a2.538,2.538,0,0,0-3.369.176,10.148,10.148,0,0,1,3.286,2.316c1.467,1.589,2.065,1.59,3.478,1.59s2.88.851,4.7.824,1.685-.6,3.968-.491,4.4-1.12,6.143-1.12,5.053,4.548,5.867,6.685c.769,2.016,1.635,2.593,2.712,2.7h0c.064.006.128.011.193.014h.005a4.148,4.148,0,0,0,1.349-.213,1.807,1.807,0,0,1-.689.462c.983.637,2.015,2.265,2.921,2.244a.917.917,0,0,0,.846-.475l.008-.011a1.345,1.345,0,0,0-.007-1.373,1.012,1.012,0,0,1,.63.9,1.98,1.98,0,0,1,.59-.053c1.494.055,2.555.275,2.935-.19s-1.764-4.41-3.83-4.411" transform="translate(-74.669 -60.612)" fill="#000f9f"/>
    <path id="Path_6764" data-name="Path 6764" d="M40.529,112.048a13.737,13.737,0,0,1-5.378,1.1,10.429,10.429,0,0,1-1.39-.091,10.769,10.769,0,0,1-1.832-.444,9.278,9.278,0,0,0-3.15-.488,12.116,12.116,0,0,1,4.4.332c2.634.644,7.331-.517,7.379-.528l.666-.167Zm-9.491,4.773a3.5,3.5,0,0,1,1.5,1.806l.057.28-.2-.2a16.883,16.883,0,0,0-2.051-1.716,4.86,4.86,0,0,1-1.5-1.991l-.226-.561.375.474a11.639,11.639,0,0,0,2.048,1.907m13.219-3.33c-.464.006-1.806.022-2.708,0a.15.15,0,0,1-.053-.288l.386-.164a22.675,22.675,0,0,1,9.111-1.762c.226-.426.492-1.056.176-1.42-.373-.43-1.084-.133-1.49.266s-.824.92-1.389.885a.622.622,0,0,0-.849-.592.79.79,0,0,0-.092-.718,5.084,5.084,0,0,1-1.686,1.91,4.286,4.286,0,0,0,.479-2.949,4.123,4.123,0,0,1-1.386,2.7l-.21-2.338a.46.46,0,0,0-.128-.339.436.436,0,0,0-.319-.047,1.938,1.938,0,0,1-1.147-.044c-.582-.307-.7-1.254-1.348-1.381a2.413,2.413,0,0,0-.49,0c-.882.007-1.552-.787-2.383-1.086a2.615,2.615,0,0,0-2.844,1.245c3.343-.335,3.77.975,3.77.975-2.934-1.946-9.513,1.091-11.47,1.364s-2.093-.056-3.072,1.86.08,2.957,1.438,3.889,3.368,3.753,4.971,5.342,1.263.822,2.3,1.562,1.571-.781,1.884-.575-.143.847-.143.847c1.72.169,2.5,1.679,3.44,1.232s-.886-4.586.279-2.349-.556,1.509,1.942,1.287,1.5-1.229,0-3.02A2.925,2.925,0,0,0,38,118.658s-1.329.495-1.37,1.07-.666.534-1.074.342.517-.4.449-.821-.475-.781-2.255-1.124-4.143-3.754-3.762-4.1,2.914.871,5.87.5,5.323-.343,6.951-.51a4.04,4.04,0,0,0,1.487-.412.066.066,0,0,0-.042-.119" transform="translate(-13.395 -57.051)" fill="#000f9f"/>
    <path id="Path_6765" data-name="Path 6765" d="M26.236,120.708c-.444-.5-.792-.8-1.159-.757s-.634-.045-.838-.594c-.2-.534,1.066-.981-1.533-2.723a.811.811,0,0,0,.117.5.413.413,0,0,0,.262.173l.382.05-.365.12a.768.768,0,0,1-.219.031.581.581,0,0,1-.308-.081.537.537,0,0,1-.264-.459,1.344,1.344,0,0,0-.409-1.034,2.622,2.622,0,0,1-.8-3.578c.441-.748.4-2.013,3.208-2.176s2.457-.96,4.577-1.205,3.266-1.022,2.695-1.245a2.489,2.489,0,0,0-1.427.085c-1.024.129-1.994.2-2.9.22-.97.963-3.208,1.615-2.919,1.324a13.162,13.162,0,0,0,.954-1.329c-2.82-.088-4.774-.476-5.462-.221-1.033.383-.9,1.642-1.387,2.3a2.1,2.1,0,0,0,0,2.492,24.277,24.277,0,0,1,2.47,6.628c.623,2.931,1.33,2.822,2.308,2.575s1.14,2.273,3.043,2.74.218-.767,1.713-.629a13.9,13.9,0,0,0,2.636,0,10.728,10.728,0,0,1-4.374-3.213" transform="translate(-9.766 -57.932)" fill="#000f9f"/>
    <path id="Path_6766" data-name="Path 6766" d="M71.395,118.865,71.1,118.5a17.979,17.979,0,0,0-5.589,1.305s1.621-.112,3.427-.11a3.7,3.7,0,0,0-.224-.454l-.205-.348.33.232a2.59,2.59,0,0,1,.554.574c.192,0,.385.006.576.012a3.058,3.058,0,0,0-.373-.607l-.194-.264.3.133a2.05,2.05,0,0,1,.776.758c.174.008.347.018.515.03a5.935,5.935,0,0,0-.431-.785l-.261-.4.383.276a3.4,3.4,0,0,1,.865.952c.177.018.348.039.512.063a9.457,9.457,0,0,0-.667-1" transform="translate(-35.484 -63.767)" fill="#000f9f"/>
    <path id="Path_6767" data-name="Path 6767" d="M80.839,118.376s-.5-.03-1.307,0l.349.157a2.966,2.966,0,0,1,.763.523,1.214,1.214,0,0,0,.195-.68" transform="translate(-43.076 -63.695)" fill="#000f9f"/>
    <path id="Path_6768" data-name="Path 6768" d="M78.567,118.394c-.231.009-.486.023-.763.044l.363.244a5.188,5.188,0,0,1,1.062.992c.069-.068.149-.153.23-.249a7.163,7.163,0,0,0-.61-.735Z" transform="translate(-42.14 -63.712)" fill="#000f9f"/>
    <path id="Path_6769" data-name="Path 6769" d="M89.668,119.777l.215.468a2.946,2.946,0,0,1,.183,1.6,1.857,1.857,0,0,1,.227.135,4.843,4.843,0,0,0-.017-1.495l-.066-.354a2.682,2.682,0,0,1,.487,2.2.937.937,0,0,0,.318.161,5.346,5.346,0,0,0-.154-1.746l-.158-.426a3.476,3.476,0,0,1,.779,2.19.865.865,0,0,0,.57-.3c.108-.217.8-1.428-2.385-2.438" transform="translate(-48.566 -64.456)" fill="#000f9f"/>
    <path id="Path_6770" data-name="Path 6770" d="M88.878,119.73l-.043-.014a4.473,4.473,0,0,1-.545,1.835,2.794,2.794,0,0,1,.6.1,3.618,3.618,0,0,0,.08-1.388Z" transform="translate(-47.819 -64.423)" fill="#000f9f"/>
    <path id="Path_6771" data-name="Path 6771" d="M82.774,115.42c.065-.084.37-.625,1.162-3.932l.171.029c-.062.653-.4,3.924-1.045,4.151a.26.26,0,0,1-.084.014.319.319,0,0,1-.231-.115l-.132-.138Zm1.642-3.775.173,0c0,.009.035.97,0,1.956-.08,2.039-.394,2.2-.5,2.256a.261.261,0,0,1-.119.03.346.346,0,0,1-.212-.084l-.2-.154.221,0c.062-.082.337-.624.636-4.006M82.608,115.8a.971.971,0,0,0,1.012.264s.868.582,1.1-.248.343-5.778.343-5.778a.629.629,0,0,1-.8-.161s-1.958,4.64-2.17,5.078.019,1.048.511.845" transform="translate(-44.422 -59.127)" fill="#000f9f"/>
    <path id="Path_6772" data-name="Path 6772" d="M130.215,88.284a.19.19,0,0,1-.135.057h0a.189.189,0,0,1-.135-.057.192.192,0,1,1,.271,0m-.723-.766c-.009.332-.029.681-.064,1.048a18.136,18.136,0,0,1,4.108,1.65c-.033-.33-.072-.657-.118-.979a22.028,22.028,0,0,0-3.926-1.719" transform="translate(-70.1 -47.097)" fill="#000f9f"/>
    <path id="Path_6773" data-name="Path 6773" d="M125.542,92.5a.191.191,0,0,1-.271,0,.2.2,0,0,1-.056-.137.193.193,0,0,1,.056-.136.19.19,0,0,1,.136-.057.194.194,0,0,1,.135.33m-.049.733a.192.192,0,1,1-.192-.194h0a.19.19,0,0,1,.135.057.193.193,0,0,1,.056.137m-5.977-2.266a.188.188,0,0,1-.135.056.193.193,0,0,1,0-.387.19.19,0,0,1,.136.057.195.195,0,0,1,0,.273m-.275.927a.19.19,0,0,1-.136.056.194.194,0,0,1-.136-.33.19.19,0,0,1,.271,0,.194.194,0,0,1,0,.273m-2.2-9.692a.193.193,0,0,1,.056-.137.19.19,0,0,1,.136-.056.193.193,0,0,1,.135.33.19.19,0,0,1-.135.057h0a.19.19,0,0,1-.135-.057.193.193,0,0,1-.056-.137m.287-1.022a.2.2,0,1,1-.056.137.191.191,0,0,1,.056-.137m.106-.964a.19.19,0,0,1,.135-.057h0a.19.19,0,0,1,.135.057.192.192,0,1,1-.271,0m0-1.03a.19.19,0,0,1,.271,0,.194.194,0,0,1-.136.33h0a.188.188,0,0,1-.135-.057.193.193,0,0,1,0-.273m-.467,4.3a.19.19,0,0,1-.136.056.193.193,0,0,1-.136-.33.192.192,0,0,1,.271,0,.2.2,0,0,1,0,.273m-.361.817a.19.19,0,0,1-.271,0,.194.194,0,0,1,.136-.33h0a.193.193,0,0,1,.135.33m-.361.867a.191.191,0,0,1-.135.056.186.186,0,0,1-.136-.057.193.193,0,0,1,0-.273.169.169,0,0,1,.136-.057.19.19,0,0,1,.136.057.195.195,0,0,1,0,.273m-.376.951a.192.192,0,0,1-.271,0,.2.2,0,0,1,0-.273.192.192,0,0,1,.271,0,.194.194,0,0,1,0,.273m-.557,1.167h0a.19.19,0,0,1-.136-.056.2.2,0,0,1,0-.273.19.19,0,0,1,.136-.056.193.193,0,0,1,0,.386m-.3,1a.19.19,0,0,1-.136.057.194.194,0,0,1-.135-.33.189.189,0,0,1,.135-.056h0a.188.188,0,0,1,.135.057.193.193,0,0,1,0,.273m-.482,1.084h0a.19.19,0,0,1-.136-.057.194.194,0,0,1,0-.273.189.189,0,0,1,.135-.056h0a.193.193,0,0,1,0,.387m-.286,1.148a.19.19,0,0,1-.271,0,.2.2,0,0,1,0-.273.19.19,0,0,1,.136-.056.193.193,0,0,1,.136.33m-.406,1.132a.192.192,0,0,1-.271,0,.194.194,0,0,1,0-.273.181.181,0,0,1,.136-.057.194.194,0,0,1,.136.33M127.53,93.05a9.88,9.88,0,0,1,3.136,2.472l-.128.118a19.449,19.449,0,0,0-3.089-2.436ZM125.6,90.638a.188.188,0,0,1-.135.057h0a.19.19,0,0,1-.135-.057.193.193,0,0,1,.136-.33.19.19,0,0,1,.136.057.194.194,0,0,1,0,.273m.106-1.191a.19.19,0,0,1-.136.057.193.193,0,0,1,0-.387h0a.19.19,0,0,1,.135.057.193.193,0,0,1,0,.273m2.17-7.661a9.653,9.653,0,0,0-3.739-3.305l.063-.163h0c3.563,1.393,5.9,4.865,6.755,10.039a29.651,29.651,0,0,1,.221,7.464L131,95.806c.234-4.072-.12-9.81-3.128-14.019m-2.427,1.466a.192.192,0,1,1-.327-.137.19.19,0,0,1,.136-.057.192.192,0,0,1,.192.194m-.528-.851h0a.192.192,0,0,1-.192-.194.192.192,0,1,1,.327.137.19.19,0,0,1-.136.056m-.375-1.184a.192.192,0,1,1,.327.137.19.19,0,0,1-.135.057h0a.19.19,0,0,1-.135-.057.193.193,0,0,1-.056-.137m-.137-.934a.19.19,0,0,1-.135.057h0a.194.194,0,0,1-.135-.33.192.192,0,0,1,.271,0,.194.194,0,0,1,0,.273m-.651-.867h0a.189.189,0,0,1-.135-.056.192.192,0,1,1,.136.056m2.8-.434a.19.19,0,0,1,.135-.057h0a.194.194,0,0,1,.135.33.192.192,0,0,1-.271,0,.194.194,0,0,1-.056-.137.191.191,0,0,1,.056-.137m1.208.955a.192.192,0,0,1-.056.137.192.192,0,0,1-.271,0,.194.194,0,0,1,0-.273.19.19,0,0,1,.136-.057.192.192,0,0,1,.192.194m.749.859a.192.192,0,0,1-.056.137.19.19,0,0,1-.136.057.194.194,0,0,1-.136-.33.192.192,0,0,1,.271,0,.192.192,0,0,1,.056.137m.493.637a.192.192,0,0,1-.192.193.19.19,0,0,1-.136-.057.194.194,0,0,1,.136-.33.19.19,0,0,1,.136.057.193.193,0,0,1,.056.137m.526.673a.193.193,0,0,1-.056.137.19.19,0,0,1-.271,0,.194.194,0,0,1,0-.273.192.192,0,0,1,.327.137m.475.755a.192.192,0,0,1-.327.137.193.193,0,1,1,.327-.137m.4.848a.193.193,0,0,1-.056.137.191.191,0,0,1-.271,0,.194.194,0,0,1,0-.273.19.19,0,0,1,.135-.057h0a.19.19,0,0,1,.135.057.193.193,0,0,1,.056.137m.239.953h0a.19.19,0,0,1-.136-.057.193.193,0,0,1,.136-.33.19.19,0,0,1,.136.057.193.193,0,0,1-.136.33m.238.7a.191.191,0,0,1,.271,0,.194.194,0,0,1,0,.273.19.19,0,0,1-.271,0,.194.194,0,0,1,0-.273m.739,1.835h0a.19.19,0,0,1,.136.057.194.194,0,0,1,0,.273.19.19,0,0,1-.271,0,.193.193,0,0,1,.136-.33m-.074-.609a.192.192,0,0,1-.271,0,.194.194,0,0,1,0-.273.191.191,0,0,1,.271,0,.2.2,0,0,1,0,.273m3.775-.788h0a.188.188,0,0,1-.135-.057.192.192,0,1,1,.271,0,.189.189,0,0,1-.135.056m.241.344h0a.19.19,0,0,1,.136.057.194.194,0,0,1,0,.273.19.19,0,0,1-.136.056.2.2,0,0,1-.136-.057.194.194,0,0,1,.136-.33m.722,2.758a.19.19,0,0,1,.136.056.194.194,0,0,1,.056.137.191.191,0,0,1-.056.137.188.188,0,0,1-.135.056.193.193,0,0,1-.136-.33.207.207,0,0,1,.136-.056m-.3-.778h0a.193.193,0,0,1,0-.387.19.19,0,0,1,.136.057.193.193,0,0,1-.136.33m-1.646-4.183a.19.19,0,0,1,.271,0,.2.2,0,0,1,0,.273.192.192,0,0,1-.271,0,.194.194,0,0,1,0-.273m-.06-.438a.19.19,0,0,1-.271,0,.192.192,0,1,1,.271,0m-.745-.745a.2.2,0,0,1,.056-.137.19.19,0,0,1,.271,0,.193.193,0,1,1-.328.137m-6.826-4.681.085.022a11.4,11.4,0,0,1,7.583,6.767l.058.138a6.888,6.888,0,0,1,2.708-.659,13.508,13.508,0,0,0-8.009-5.843l-.056-.012.034-.171.053.012a12.515,12.515,0,0,1,9.414,7.888,16.856,16.856,0,0,1,1.155,6.125l-.173,0a19.712,19.712,0,0,0-.392-2.929c-.84.067-4.859.654-7.353,5.792l-.158-.071a9.163,9.163,0,0,1,4.781-5.309,7.033,7.033,0,0,1,2.69-.6,15.355,15.355,0,0,0-1.875-4.705,6.174,6.174,0,0,0-2.682.812,16.371,16.371,0,0,1,.625,1.939l.391-.177a.191.191,0,1,1,.19.208.192.192,0,0,1-.192-.193V87.1l-.357.3c.121.487.208.93.27,1.3l.352-.18-.33.311c.11.7.132,1.132.132,1.142l-.172.019q-.085-.485-.187-.944a16.492,16.492,0,0,0-3.475,5.156l-.162-.062c1.392-3.864,3.227-5.1,3.587-5.309q-.141-.61-.307-1.176a15.276,15.276,0,0,0-3.118,4.948l-.163-.06c1.118-3.587,2.7-4.806,3.212-5.118q-.171-.558-.364-1.072a21.428,21.428,0,0,0-2.567,3.427l-.443.732.288-.807a8.031,8.031,0,0,1,2.647-3.552c-.079-.2-.16-.4-.243-.593a7.208,7.208,0,0,0-2.69,3.548l-.165-.051a5.743,5.743,0,0,1,2.7-3.85,13.891,13.891,0,0,0-3.621-4.9,10.32,10.32,0,0,0-3.651-2.055l-.088-.023Zm8.514,2.636h0a.189.189,0,0,1,.135.056.192.192,0,1,1-.136-.056m.662.531h0a.193.193,0,0,1,0,.387.19.19,0,0,1-.136-.057.193.193,0,0,1,.136-.33m.377.508a.19.19,0,0,1,.271,0,.194.194,0,0,1,0,.273.191.191,0,0,1-.271,0,.192.192,0,0,1-.056-.137.19.19,0,0,1,.056-.136m.465.54a.189.189,0,0,1,.135-.056h0a.193.193,0,0,1,0,.387h0a.194.194,0,0,1-.135-.33m.568.727a.194.194,0,0,1,.136-.057.192.192,0,0,1,.192.194.192.192,0,1,1-.327-.137m.868,1.424a.191.191,0,0,1,.271,0,.191.191,0,1,1-.271,0m.495.623h0a.19.19,0,0,1,.136.056.2.2,0,0,1,0,.273.192.192,0,0,1-.271,0,.194.194,0,0,1,0-.273.19.19,0,0,1,.136-.056m.21.649a.19.19,0,0,1,.136.057.192.192,0,1,1-.271,0,.19.19,0,0,1,.136-.057m.228.642a.19.19,0,0,1,.136.057.194.194,0,0,1-.136.33h0a.19.19,0,0,1-.135-.057.194.194,0,0,1,0-.273.19.19,0,0,1,.136-.056m.336.737h0a.19.19,0,0,1,.136.057.194.194,0,0,1,0,.273.191.191,0,0,1-.271,0,.193.193,0,0,1,.136-.33m.22.751a.194.194,0,0,1,.136.33.191.191,0,0,1-.271,0,.194.194,0,0,1,.136-.33m.342.887a.193.193,0,0,1-.056.137.189.189,0,0,1-.135.056h0a.19.19,0,0,1-.136-.057.194.194,0,0,1,0-.273.2.2,0,0,1,.136-.057.192.192,0,0,1,.192.194m.028.548a.19.19,0,0,1,.136.056.192.192,0,1,1-.271,0,.19.19,0,0,1,.136-.056m.346.885a.194.194,0,0,1,0,.273.19.19,0,0,1-.136.056.194.194,0,0,1-.136-.33.2.2,0,0,1,.136-.056.19.19,0,0,1,.136.056m.074.827a.194.194,0,0,1,.136.33.191.191,0,0,1-.271,0,.195.195,0,0,1,0-.273.19.19,0,0,1,.136-.057m-8.056,4.439-.16-.067a10.461,10.461,0,0,1,2.857-3.894l.118.127a23.063,23.063,0,0,0-2.814,3.835M125.7,88.291a.189.189,0,0,1-.135.056h0a.19.19,0,0,1-.135-.057.193.193,0,0,1,0-.273.191.191,0,0,1,.327.137.193.193,0,0,1-.056.137m-4.543-6.621a.19.19,0,0,1-.271,0,.2.2,0,0,1,0-.273.191.191,0,0,1,.271,0,.193.193,0,0,1,0,.273m-.432-1.207a.193.193,0,0,1,.192-.193.19.19,0,0,1,.136.056.194.194,0,0,1,0,.273.188.188,0,0,1-.135.056.19.19,0,0,1-.136-.056.2.2,0,0,1-.056-.137m-.017-.836a.19.19,0,0,1-.136-.057.193.193,0,0,1-.056-.137.192.192,0,1,1,.327.137.19.19,0,0,1-.136.056m10.067,17.591s2.04-3.244,5.5-.7c0,0,.736-4.094,3.508-3.3,0,0-.111-1.65,1.764-1.293,0,0-.573-14.795-15.494-14.022-2.851.155-5.213.339-6.815.478a1.16,1.16,0,0,1,.193.219,5.329,5.329,0,0,1,.9,3.5,14.348,14.348,0,0,1,3.833,1.376,17.112,17.112,0,0,0-.419-1.872,6.5,6.5,0,0,0-1.608-3.122l-.026-.022.1-.139c.005,0,.022.017.05.041,1.264,1.051,2.092,2.871,2.476,5.432a17.05,17.05,0,0,1,5.42,5l.019.028-.142.1-.021-.03a17.608,17.608,0,0,0-4.366-4v.009a.192.192,0,0,1-.192.193.19.19,0,0,1-.136-.057.194.194,0,0,1,0-.273.207.207,0,0,1,.064-.044c-.185-.119-.374-.238-.57-.356q.055.465.093.96a17.171,17.171,0,0,1,5.27,4.77l-.139.1a21.49,21.49,0,0,0-4.294-3.843.19.19,0,0,1-.184.141h0a.189.189,0,0,1-.135-.056.194.194,0,0,1,0-.273l.018-.015c-.169-.112-.337-.219-.5-.324q.029.512.039,1.053a15.874,15.874,0,0,1,5.443,4.941l-.145.1a19.325,19.325,0,0,0-5.292-4.577c0,.264,0,.534-.005.808a14.191,14.191,0,0,1,3.028,2.118,13.416,13.416,0,0,1,2.661,3.284l-.15.088a14.582,14.582,0,0,0-5.55-5.042c-.009.3-.022.591-.037.881a14.844,14.844,0,0,1,2.993,1.945,13.192,13.192,0,0,1,2.74,3.07l-.147.092a15.86,15.86,0,0,0-5.613-4.657q-.03.48-.069.937a15.268,15.268,0,0,1,2.726,1.343,10.049,10.049,0,0,1,2.656,2.277l-.135.109a13.585,13.585,0,0,0-4.441-2.953.2.2,0,0,1-.055.117.192.192,0,0,1-.28-.263q-.248-.105-.508-.208c-.221,2.356-.561,4.08-.565,4.1l-.171-.028c.158-1.275.3-2.713.385-4.21a23.319,23.319,0,0,0-4.817-1.205.19.19,0,0,1,.1.053.194.194,0,0,1-.136.33.174.174,0,0,1-.136-.056.2.2,0,0,1,0-.273.19.19,0,0,1,.136-.057.193.193,0,0,1,.037,0q-.366-.053-.746-.1c-.772,2.6-1.573,4.606-1.584,4.631l-.163-.059c3.862-12.06,2.611-15.113,2.1-15.787a2.159,2.159,0,0,0-.189-.184l-.064-.055c-1.292.114-2.023.194-2.023.194a10.166,10.166,0,0,1-.655,4.272,107.735,107.735,0,0,0-3.8,10.6s3.629-1.271,4.524,1.646a4.889,4.889,0,0,1,6.93.989s3.1-3.12,6.807,1.113" transform="translate(-60.941 -41.909)" fill="#000f9f"/>
    <path id="Path_6774" data-name="Path 6774" d="M127.377,100.694a.189.189,0,0,1,.135-.056h0a.188.188,0,0,1,.135.057.193.193,0,0,1,0,.273.19.19,0,0,1-.136.057.194.194,0,0,1-.135-.33m-.835.994a19.87,19.87,0,0,1,5.534,1.064c.016-.331.029-.665.039-1a17.692,17.692,0,0,0-5.156-1.562c-.133.512-.274,1.014-.416,1.5" transform="translate(-68.537 -53.916)" fill="#000f9f"/>
    <path id="Path_6775" data-name="Path 6775" d="M128.416,98.38a.194.194,0,1,1,.056-.137.191.191,0,0,1-.056.137m4.264.447a17.018,17.018,0,0,0-4.848-1.545q-.078.347-.166.707-.056.228-.114.454a15.129,15.129,0,0,1,5.12,1.3q.009-.455.008-.912" transform="translate(-69.084 -52.351)" fill="#000f9f"/>
    <path id="Path_6776" data-name="Path 6776" d="M129.726,90.5h0a.19.19,0,0,1,.136.057.195.195,0,0,1,0,.273.189.189,0,0,1-.135.056h0a.191.191,0,0,1-.135-.056.194.194,0,0,1,.136-.33m-.775,1.149a17.449,17.449,0,0,1,4.445,1.6q-.028-.556-.073-1.1a22.7,22.7,0,0,0-4.172-1.952q-.072.688-.2,1.454" transform="translate(-69.842 -48.538)" fill="#000f9f"/>
    <path id="Path_6777" data-name="Path 6777" d="M128.887,94.286a.191.191,0,0,1,.271,0,.193.193,0,0,1-.136.33.19.19,0,0,1-.136-.057.194.194,0,0,1,0-.273m-.632.9a13.922,13.922,0,0,1,4.8,1.286q-.006-.432-.02-.863a20.065,20.065,0,0,0-4.495-1.868q-.121.691-.288,1.446" transform="translate(-69.465 -50.448)" fill="#000f9f"/>
    <path id="Path_6778" data-name="Path 6778" d="M46.33,87.954a.418.418,0,0,1,.449.019A3.445,3.445,0,0,1,48.461,91.2h-.172c-.149-1.435-.743-2.347-1.72-2.637a.451.451,0,0,1-.356-.331.284.284,0,0,1,.118-.279m10.848-3.669a40.457,40.457,0,0,1,6.482,2.153l-.068.16a41.8,41.8,0,0,0-7.179-2.072.417.417,0,0,1-.338.236l-.036,0c-.041-.005-.117-.013-.138-.082s.03-.108.066-.139a.434.434,0,0,0,.079-.08q-.265-.047-.533-.09a.582.582,0,0,0,.048.077c.028.038.066.091.032.151a.111.111,0,0,1-.1.05.376.376,0,0,1-.05,0,.412.412,0,0,1-.311-.333c-2.968-.438-6.155-.453-8.547.712l-.085-.152c2.883-1.89,7.4-1.361,10.682-.584M46.7,83.322h0a.188.188,0,0,1,.136.057.193.193,0,0,1,0,.273.19.19,0,0,1-.271,0,.194.194,0,0,1,.136-.33m1.13-.44a.19.19,0,0,1,.271,0,.193.193,0,0,1-.136.33.19.19,0,0,1-.136-.057.195.195,0,0,1,0-.273m1.268-.288a.19.19,0,0,1,.136-.056.193.193,0,0,1,.136.33.19.19,0,0,1-.271,0,.2.2,0,0,1,0-.273m1.844-.211a.19.19,0,0,1,.271,0,.2.2,0,0,1,0,.273.191.191,0,0,1-.271,0,.193.193,0,0,1,0-.273m1.859,0a.22.22,0,0,1,.135-.056.19.19,0,0,1,.136.057.192.192,0,1,1-.271,0m2.007.213a.19.19,0,0,1,.135-.057h0a.19.19,0,0,1,.136.057.195.195,0,0,1,0,.273.19.19,0,0,1-.136.056.193.193,0,0,1-.135-.33m2.2.339h0a.193.193,0,0,1,.135.33.19.19,0,0,1-.271,0,.193.193,0,0,1,.136-.33m1.7.5h0a.192.192,0,0,1,.192.193.192.192,0,1,1-.192-.193m1.823,5.977a5.894,5.894,0,0,1,2.335-2.155c.269-.1.415-.019.463.09s-.006.295-.217.405a7.973,7.973,0,0,0-2.44,1.76l-.482.541ZM61.7,86.454a.34.34,0,0,1,.494,0,.314.314,0,0,1-.093.45c-.069.058-.147.117-.232.182a4.084,4.084,0,0,0-.969.957l-.494.7.344-.788a5.741,5.741,0,0,1,.95-1.5m-1.151,1.565-.2.524.035-.561a9.009,9.009,0,0,0-.078-1.945.367.367,0,0,1,.085-.378.273.273,0,0,1,.286-.05.438.438,0,0,1,.235.4,5.138,5.138,0,0,1-.36,2.01m3.077.71a.42.42,0,0,1-.285.3A7.934,7.934,0,0,0,60.3,90.741l0,0-.13-.116.007-.008a6.834,6.834,0,0,1,2.713-2l.176-.076c.273-.121.415-.063.476-.017a.214.214,0,0,1,.084.2m-.339,1.477a.489.489,0,0,1-.4.291,4.678,4.678,0,0,0-3.372,2.2l-.156-.076a5,5,0,0,1,3.337-2.735.536.536,0,0,1,.536.067.255.255,0,0,1,.057.257M62.7,92.041c-.049.019-.117.038-.2.064a5.834,5.834,0,0,0-3.153,2.146l-.414.523.267-.613A5.1,5.1,0,0,1,62.5,91.5a.341.341,0,0,1,.444.173c.039.12-.021.279-.241.363m-3.59-.3-.169.034A5.4,5.4,0,0,0,56.36,88.3c-.22-.094-.352-.232-.363-.377a.23.23,0,0,1,.111-.216.411.411,0,0,1,.426.041,5.665,5.665,0,0,1,2.58,4m.245-.778-.173-.006A4.909,4.909,0,0,0,57.077,86.8l-.039-.027a.4.4,0,0,1-.205-.345.242.242,0,0,1,.141-.2.411.411,0,0,1,.409.074,5.708,5.708,0,0,1,1.977,4.667m-.928-4.8L58.4,86.13c-.167-.177-.155-.344-.07-.431s.267-.1.432.054a4.76,4.76,0,0,1,1.166,3.1,8.818,8.818,0,0,1-.092,1.846l-.172-.021a5.8,5.8,0,0,0-1.23-4.513m-2.464,3.905a.56.56,0,0,1-.489-.281.219.219,0,0,1,.041-.229.514.514,0,0,1,.517-.072c3.1.762,3,4.438,3,4.475l-.172.006c-.383-3.557-2.866-3.9-2.891-3.9m-2.82,2.637h-.366l.048-.12a72.706,72.706,0,0,0,2.5-7.708c.016-.077.113-.215.358-.164a.317.317,0,0,1,.227.138.188.188,0,0,1,.016.152Zm-.627-2.756a2.449,2.449,0,0,1-.323.076,7.162,7.162,0,0,0-3.35,1.623l-.118-.127A7.8,7.8,0,0,1,52.4,89.506c.184-.056.356,0,.4.121.015.047.041.211-.279.324m-3.223-1.5a5.8,5.8,0,0,1-.1,1.434l-.171-.023c.089-2.365-.831-3.052-1.115-3.206a.38.38,0,0,1-.228-.335.294.294,0,0,1,.176-.257.393.393,0,0,1,.414.081A2.961,2.961,0,0,1,49.3,88.453m.7-.272a6.233,6.233,0,0,1-.36,1.441l-.165-.051c.139-.658.519-2.86-.44-3.559-.26-.19-.255-.374-.241-.444a.281.281,0,0,1,.217-.217.428.428,0,0,1,.43.2A3.492,3.492,0,0,1,50,88.181m1.929-2.6a5.357,5.357,0,0,0-.885,1.158l-.291.47.133-.537a5.151,5.151,0,0,1,.641-1.409c.125-.226.274-.237.332-.232a.237.237,0,0,1,.2.17.364.364,0,0,1-.132.381m1.609.57-.092.008a3,3,0,0,0-1.965.914l-.367.336.231-.442a2.935,2.935,0,0,1,2.072-1.319c.266-.052.379.03.422.084a.2.2,0,0,1,.028.211.383.383,0,0,1-.33.207m0,2.516c-.046.119-.2.2-.433.223l-.024,0a5.213,5.213,0,0,0-3.069,1.381l-.5.4.379-.523a5.348,5.348,0,0,1,3.135-1.743.473.473,0,0,1,.477.064.185.185,0,0,1,.037.193m-.1-1.241a6.81,6.81,0,0,0-3.954,2.932l-.149-.089a6.767,6.767,0,0,1,4.016-3.343.452.452,0,0,1,.445.053.186.186,0,0,1,.05.189c-.036.12-.181.212-.408.258m-3.261-2.091a.43.43,0,0,1,.035-.479.292.292,0,0,1,.318-.084c.078.027.262.133.286.519a7.118,7.118,0,0,1-.486,3.027l-.371.727.21-.79a5.4,5.4,0,0,0,.008-2.919M48.575,90c-.352-1.913-1.225-2.276-1.6-2.431a.421.421,0,0,1-.295-.34.279.279,0,0,1,.143-.26.453.453,0,0,1,.479.068,3.558,3.558,0,0,1,1.443,2.952l-.036.748Zm-3.183-6a.189.189,0,0,1-.135.056h0a.188.188,0,0,1-.135-.057.193.193,0,0,1,0-.273.19.19,0,0,1,.136-.057.194.194,0,0,1,.135.33m-.314,7.888c.979-.033,1.42,1.042,1.42,1.042s.5-1.15,1.54-1.15,1.619,1.233,1.619,1.233a2,2,0,0,1,1.56-.944c1,0,1.559,1.26,1.559,1.26a2.02,2.02,0,0,1,1.9-.7,1.961,1.961,0,0,1,1.25,1.589,2.154,2.154,0,0,1,2.072-.458c.867.287,1.049,1.533,1.049,1.533a2.03,2.03,0,0,1,2.214-.635,1.842,1.842,0,0,1,1.179,1.26s1.674-3.8,1.1-4.751c-.428-.71,1.607-6.215,1.607-6.215s-9.483-5.016-18.7-2.009a5.151,5.151,0,0,1-1.9.146.345.345,0,0,0,0,.362,2.122,2.122,0,0,1,.092,1.459c1.149-.2,1.607-.194,1.725.03.135.256-.2.674-.915,1.406C44.1,87.734,43.287,89.779,43.6,91a6.071,6.071,0,0,1,.233,1.62,1.583,1.583,0,0,1,1.241-.738" transform="translate(-23.58 -44.118)" fill="#000f9f"/>
    <path id="Path_6779" data-name="Path 6779" d="M40.534,88.832c-.035-.067-.359-.144-1.326.03a21.366,21.366,0,0,1-2.762,5.8c-1.509,2.381-2.815,4.024-2.815,4.024s1.3-.617,1.589-1.206c.32-.652.844-.333,1.272-.538s.045-.849.81-1.04a.707.707,0,0,1,.684.162A6.627,6.627,0,0,0,37.77,94.8c-.366-1.408.784-3.656,2.107-5.015.732-.752.666-.937.657-.956" transform="translate(-18.215 -47.763)" fill="#000f9f"/>
    <path id="Path_6780" data-name="Path 6780" d="M40.97,19.894,15.457,9.824l-.3.846L40.8,20.894c.05-.456.172-1,.172-1" transform="translate(-8.212 -5.287)" fill="#000f9f"/>
    <path id="Path_6781" data-name="Path 6781" d="M80.7,44.99a1.935,1.935,0,0,1-1.87,1.842,2.256,2.256,0,0,1-1.761-.862.875.875,0,0,0,.686-.792l.217-1.62a2.243,2.243,0,0,0-1.548,2.25,2.531,2.531,0,0,0,2.409,2.44c1.15,0,3.358-1.3,3.36-4.651a4.567,4.567,0,0,0-2.848-4.35L78.8,43.037c1.388.172,1.968,1.048,1.9,1.953" transform="translate(-41.392 -21.12)" fill="#000f9f"/>
    <path id="Path_6782" data-name="Path 6782" d="M78.565,30.058c1.042,0,2.507.482,2.506,1.993,0,1.625-2.1,1.706-2.1,1.706a5.021,5.021,0,0,1,2.357,4.166c0,2.825-2.14,5.133-4.372,5.132a3.058,3.058,0,0,1-3.346-2.982,2.819,2.819,0,0,1,2.561-2.763l.865-6.46s-1.272.607-.667,1.26c.705.759-.747,1.375-.746.061,0-1.483,1.964-2.112,2.939-2.112M74.912,33a1.558,1.558,0,0,1,.94,1.538c0,1.064-1.017,1.9-2.244,2.8-.579.426-.579.426-.591,1.207l0,.143a20.422,20.422,0,0,0,3.218,9.536,13.026,13.026,0,0,0,3.326-3.385c3.281-4.6,4.766-10.949,5.434-15.519a30.944,30.944,0,0,0-4.878-.666c-2.446-.115-5.6.139-6.793,1.989-.155.9-.273,1.817-.352,2.719A2.091,2.091,0,0,1,74.912,33" transform="translate(-39.522 -15.405)" fill="#000f9f"/>
    <path id="Path_6783" data-name="Path 6783" d="M81.377,51.014A1.134,1.134,0,0,0,82.4,49.7a1.364,1.364,0,0,0-1.259-1.144l-.244,1.693s-.152.762.484.762" transform="translate(-43.804 -26.131)" fill="#000f9f"/>
    <path id="Path_6784" data-name="Path 6784" d="M85.588,34.293a1.428,1.428,0,0,0-1.438-1.586c-.833,0-.874.623-.874.623l-.216,1.761a1.777,1.777,0,0,0,1.116.515,1.373,1.373,0,0,0,1.412-1.314" transform="translate(-44.987 -17.601)" fill="#000f9f"/>
    <path id="Path_6785" data-name="Path 6785" d="M79.23,27.58a31.319,31.319,0,0,1,5.058.7l.131.03-.019.133c-.664,4.611-2.158,11.092-5.5,15.781a13.037,13.037,0,0,1-3.52,3.534l-.112.07-.079-.106a20.564,20.564,0,0,1-3.355-9.8v-.008l0-.159c.013-.9.033-.941.709-1.438,1.163-.854,2.126-1.636,2.126-2.564a1.278,1.278,0,0,0-.756-1.267,1.914,1.914,0,0,0-1.8.417l-.071.05-.05.035L71.966,33l-.087.065-.145.107.019-.252.005-.065c0-.038.007-.077.011-.115s.008-.085.011-.128.007-.085.011-.128c.08-.9.2-1.807.352-2.707l.005-.029.015-.024c1.251-1.99,4.533-2.266,7.066-2.148m-7.439,2.038q-.219,1.244-.336,2.429c0,.042-.008.085-.012.127l-.012.127c-.008.09-.017.18-.024.269q-.067.791-.095,1.555a6.611,6.611,0,0,1,.8-.751l.089-.067.07-.051.072-.049c1.2-.82,1.952-.341,1.951.549,0,.767-.965,1.519-1.972,2.258-.9.661-.848.842-.866,1.917.393,4.224,1.937,8.223,3.714,10.38,0,0,7.367-3.31,9.672-20.287,0,0-10.516-2.717-13.046,1.6" transform="translate(-38.623 -14.625)" fill="#000f9f"/>
    <path id="Path_6786" data-name="Path 6786" d="M95.887,87.764h0a.194.194,0,0,1-.136-.33.192.192,0,0,1,.271,0,.194.194,0,0,1-.136.33m-.18-1.048a.19.19,0,0,1,.271,0,.192.192,0,1,1-.271,0m-.789,1.328a1.016,1.016,0,0,1-.6-.16.721.721,0,0,1-.276-.623.789.789,0,0,1,.282-.652,1.8,1.8,0,0,1,1.313-.165l-.025.172a1.636,1.636,0,0,0-1.019.269.511.511,0,0,0-.161.39.432.432,0,0,0,.151.355c.316.261,1.008.126,1.015.124l.044.169a2.562,2.562,0,0,1-.727.12m3.132-3.306a1.411,1.411,0,0,1,1.6,1.172l.05.347c.021-.03.044-.06.067-.09.387-.479.452-1.979-1.283-1.979a2.429,2.429,0,0,0-2.556,2.053s-2.113-.494-2.114,1.039,2.113.823,2.113.823,1.412,1.507,2.69,1.508a1.222,1.222,0,0,0,1.149-1.827,2.365,2.365,0,0,1-.134-.251l-.038.26a1.407,1.407,0,0,1-1.4,1.181c-.065,0-.132,0-.2-.01a2.12,2.12,0,0,1-1.761-1.731l-.138-.819.3.772s.019.048.055.118l.264-.492a1.735,1.735,0,0,1,1.128-.866,1.65,1.65,0,0,1,1.388.643l-.116.129a1.624,1.624,0,0,0-2.261.195l-.387.423a2,2,0,0,0,1.427,1.11,1.317,1.317,0,0,0,1.532-.7l.139-.379a1.347,1.347,0,0,1-.081-.456l-.245.354a1.61,1.61,0,0,1-1.119.683H98.1a1.448,1.448,0,0,1-1.114-.68l.128-.116a1.538,1.538,0,0,0,2.01-.007l.367-.264a1.122,1.122,0,0,1,.145-.515l-.149-.416a1.317,1.317,0,0,0-1.531-.7c-1.041.128-1.549,1.507-1.554,1.52l-.167-.045c0-.018.341-1.85,1.817-1.993" transform="translate(-50.813 -45.306)" fill="#000f9f"/>
    <path id="Path_6787" data-name="Path 6787" d="M96.227,94a.725.725,0,0,0-.508.327l.286.158a1.575,1.575,0,0,0,1.114.114l.3-.095c-.411-.327-.653-.584-1.19-.5" transform="translate(-51.843 -50.577)" fill="#000f9f"/>
    <path id="Path_6788" data-name="Path 6788" d="M93.6,97.347l-.2-.105.22.061.006-.018-.2-.051a1.621,1.621,0,0,0-1.522.352,2.381,2.381,0,0,0-.527.63l-.159-.068a1.768,1.768,0,0,1,.975-1.222,1.634,1.634,0,0,1,1.3.148l.168.1c.279-.823.367-1.2.369-1.21L94.2,96c0,.012-.077.512-.281,1.333l.092.055-.1-.026-.006.023.312.087a2.608,2.608,0,0,1,1.052.6q.039-.109.074-.217a2.218,2.218,0,0,0-.841-.683l.048-.167a2.537,2.537,0,0,1,.935.387c.225-.808.267-1.428-.062-1.585a5.427,5.427,0,0,1-1.272-.673c-.1-.066-.182-.132-.262-.195l-.226.226a.985.985,0,0,1-.63.274l-.055,0a.87.87,0,0,1-.628-.4l-.193-.264c-.781,1-1.471,3.918-1.74,5.959a19.486,19.486,0,0,1-1.246,4.615,6.611,6.611,0,0,1,1.51.72l-.048-.31c-.006-.036-.116-.908,1.468-4.6.739-1.722,1.209-2.971,1.5-3.812" transform="translate(-48.295 -51.001)" fill="#000f9f"/>
    <path id="Path_6789" data-name="Path 6789" d="M93.235,109.144l.02-.781c.036-1.4,1.663-3.6,1.732-3.688l.147.091a38.023,38.023,0,0,0-1.707,3.619ZM95.492,105c.382-.8.977-2.04,1.423-3.192a2.2,2.2,0,0,0-.9-1.005l-.277-.143a26.468,26.468,0,0,1-1.785,4.9,15.085,15.085,0,0,0-1.289,3.366l-.06.348a10.817,10.817,0,0,1,1.015.722c.083-2.136.939-3.039,1.878-5" transform="translate(-50.153 -54.167)" fill="#000f9f"/>
    <path id="Path_6790" data-name="Path 6790" d="M84.6,64.815C83.471,67.025,86,68.83,86,68.83c-3.1-4.531,1.187-4.419,2.931-6.683,2.656-3.086.786-7.352.786-7.352a1.082,1.082,0,0,0-.612.8c.023.112.044.223.064.332a2.285,2.285,0,0,1,.243-.254c.115-.084.229.049.108.181-.059.063-.182.213-.3.366.03.188.056.368.078.545a2.574,2.574,0,0,1,.264-.277c.115-.084.229.049.107.181-.064.069-.206.243-.336.411.021.205.035.4.045.592a2.631,2.631,0,0,1,.27-.284c.115-.084.229.049.108.181-.07.075-.229.272-.366.451q.006.364-.016.691a2.662,2.662,0,0,1,.274-.288c.115-.084.229.049.108.181-.079.085-.274.326-.42.521-.468,3.832-3.777,3.838-4.727,5.69" transform="translate(-45.665 -29.487)" fill="#000f9f"/>
    <path id="Path_6791" data-name="Path 6791" d="M90.2,57.853a4.759,4.759,0,0,0-.77,1.257,9.833,9.833,0,0,1-2.55,5.51,4.847,4.847,0,0,0,3.07-3.026,3.423,3.423,0,0,1-.922.251,7.387,7.387,0,0,0,1.054-.67,6.6,6.6,0,0,0,.168-.815,3.52,3.52,0,0,1-.891.477,7.7,7.7,0,0,0,.942-.948c.017-.222.024-.434.023-.632a3.351,3.351,0,0,1-.694.5,7.036,7.036,0,0,0,.683-.914,6.892,6.892,0,0,0-.115-.989" transform="translate(-47.055 -31.133)" fill="#000f9f"/>
    <path id="Path_6792" data-name="Path 6792" d="M118.114,61.994c.282-.5-2.327-1.879-3.533.377a10.356,10.356,0,0,0-.7,2.7,3.531,3.531,0,0,1-.788,1.942c-.869.773.524,1.208,1.315-1.392-.145-.082-.3-.216-.263-.346s.224-.113.378-.077c.041-.167.081-.341.116-.528-.154-.066-.332-.183-.3-.319s.219-.136.378-.115l.011-.073c.025-.17.054-.327.085-.474-.137-.068-.27-.173-.246-.292s.2-.135.348-.119a4.027,4.027,0,0,1,.155-.439c-.127-.107-.258-.266-.195-.386s.25-.068.4,0a1.769,1.769,0,0,1,.265-.328c-.082-.122-.158-.292-.049-.4.126-.125.316.024.431.141a1.347,1.347,0,0,1,.442-.1c-.008-.126,0-.285.1-.329.139-.061.279.093.35.354a3.977,3.977,0,0,1,.493.12c-.03-.079-.1-.305.032-.357.1-.038.349.215.469.5.151.032.259.028.306-.055" transform="translate(-61.104 -32.889)" fill="#000f9f"/>
    <path id="Path_6793" data-name="Path 6793" d="M119.947,79.15a4.454,4.454,0,0,0-.619,1.09c-.072.145.091.269.179.049a6.4,6.4,0,0,1,.536-.941c.126-.193.229-.294.148-.349-.109-.074-.243.151-.243.151" transform="translate(-64.62 -42.504)" fill="#000f9f"/>
    <path id="Path_6794" data-name="Path 6794" d="M117.945,83.216s.084-.18-.06-.21c-.178-.036-.316.711-.375.982s-.3,1.73-.562,2.633c-.053.182.148.253.226.029a13.242,13.242,0,0,0,.429-1.929,13.675,13.675,0,0,1,.342-1.506" transform="translate(-63.336 -44.668)" fill="#000f9f"/>
    <path id="Path_6795" data-name="Path 6795" d="M97.2,59.917l0,.049-.065.734a.907.907,0,0,0-.358-.336,9.434,9.434,0,0,0,.007,1.841,4.774,4.774,0,0,1,2.6-2.8,2.076,2.076,0,0,1,1.161-2.211,2.18,2.18,0,0,1-.341-.788,6.2,6.2,0,0,0-1.285.9,3.068,3.068,0,0,1,1.19-1.291,11.2,11.2,0,0,1-.17-2.864,2.581,2.581,0,0,0-.413-.1h0L99.5,53.04l-.083-.012h0c-.09-.011-.246-.027-.444-.032h0a4.706,4.706,0,0,0-1.031.083h0l-.039.009-.128.029a3.279,3.279,0,0,0-.574.2c.17.546.492.512.492.512a3.818,3.818,0,0,1,.85-.185c.254,0-.244.018-.477.447a1.549,1.549,0,0,0-.088.238c0,.016-.007.031-.011.045s-.01.045-.014.067a2.66,2.66,0,0,1,1.069-.237,3.768,3.768,0,0,0-1.1.8,2.588,2.588,0,0,0,.085.541,2.671,2.671,0,0,1,.733-.3,3.51,3.51,0,0,0-.625.7c.04.141.054.181.1.319.059.185.052.486-.139.464a2.993,2.993,0,0,0,.107.937.771.771,0,0,1-.308.828,2.808,2.808,0,0,0-.374.133.707.707,0,0,0-.225.556,3.11,3.11,0,0,1,1.288-.657c-1.146.795-1.325,1.247-1.352,1.389" transform="translate(-52.392 -28.518)" fill="#000f9f"/>
    <path id="Path_6796" data-name="Path 6796" d="M96.183,86.32a.644.644,0,0,0,.828-.35c.02-.043.04-.085.061-.127a4.154,4.154,0,0,1-.926-.712c0,.724.036,1.189.036,1.189" transform="translate(-52.075 -45.812)" fill="#000f9f"/>
    <path id="Path_6797" data-name="Path 6797" d="M104.92,65.925a24.5,24.5,0,0,0-2.469,8.07,3.314,3.314,0,0,1,1.274.012,32.3,32.3,0,0,1,1.041-3.318,4.121,4.121,0,0,0-.911-.723c-.258-.127-.211-.182.027-.091l1.052.4a3.457,3.457,0,0,1,.929-1.489c.84-.581.015-1.691-.831-2.732-.037-.046-.075-.087-.114-.127" transform="translate(-55.489 -35.477)" fill="#000f9f"/>
    <path id="Path_6798" data-name="Path 6798" d="M97.563,83.786a3.692,3.692,0,0,1-1.376-1.158c-.013.239-.022.468-.027.681a3.812,3.812,0,0,0,1.05.95,2.9,2.9,0,0,1,.353-.473" transform="translate(-52.082 -44.465)" fill="#000f9f"/>
    <path id="Path_6799" data-name="Path 6799" d="M99.657,64.809a2.072,2.072,0,0,0-.043,1.088,4.077,4.077,0,0,0-1.943,1.673,9.974,9.974,0,0,1,2.115-.868c.373-.1.233,0,.011.1a13.38,13.38,0,0,0-2.439,1.316,5.583,5.583,0,0,0-.264.588,10.231,10.231,0,0,1,2.492-1.186c.343-.107.3-.039.039.072a10.289,10.289,0,0,0-2.782,1.823c-.076.244-.1.326-.16.575a7.319,7.319,0,0,1,2.555-1.343c.356-.13.279-.037.034.1a13.676,13.676,0,0,0-2.755,2,16.872,16.872,0,0,0-.24,1.849,3.612,3.612,0,0,0,1.558,1.363,2.607,2.607,0,0,1,.974-.529,27.425,27.425,0,0,1,.751-3.691,5.928,5.928,0,0,0-2.634,1.681c-.178.207-.335.236-.055-.069a8.7,8.7,0,0,1,2.853-2.189,18.746,18.746,0,0,1,1.644-4.059,2.055,2.055,0,0,0-1.712-.291" transform="translate(-52.146 -34.837)" fill="#000f9f"/>
    <path id="Path_6800" data-name="Path 6800" d="M112.211,40.024l.706-.524-.853-1.105Z" transform="translate(-60.696 -20.662)" fill="#000f9f"/>
    <path id="Path_6801" data-name="Path 6801" d="M113.831,41.936l-.571-.74-.83.569.08.9Z" transform="translate(-60.894 -22.169)" fill="#000f9f"/>
    <path id="Path_6802" data-name="Path 6802" d="M111.784,40.272c.109.765.453,1.507.454,1.163a1.888,1.888,0,0,1,1.2-1.7c.435-.056.455.279.822.4,1.3.423.732.582.981.835.285.289,1.095-.491.469-1.213s-4.766-5.938-4.766-5.938c-.182,1.354,2.613,3.849,2.494,4.267s-1.366.656-1.6,1.217a1.077,1.077,0,0,0-.063.224,1.071,1.071,0,0,1,.774,0c-.659.208-.757.591-.768.749" transform="translate(-60.087 -18.197)" fill="#000f9f"/>
    <path id="Path_6803" data-name="Path 6803" d="M101.229,35.634a5.3,5.3,0,0,0,2.243-1.163,2.08,2.08,0,0,1-2.243,1.163m.38.7a4.928,4.928,0,0,0,2.026-.846,1.764,1.764,0,0,1-2.026.846m.637,1.513a2.689,2.689,0,0,0,1.483-.4,1.027,1.027,0,0,1-1.483.4m-.484-.735a3.954,3.954,0,0,0,1.872-.5,1.721,1.721,0,0,1-1.872.5m-1.14,1.491a1.029,1.029,0,0,1,1.212-.748,5.36,5.36,0,0,0-1.212.748m-.256-.831a.929.929,0,0,1,1.03-.657,3.124,3.124,0,0,0-1.03.657m-.958-.555a.562.562,0,0,1,.1-.931,9.642,9.642,0,0,1,.862,2.626,7.71,7.71,0,0,0-.958-1.695m1.473-.882a4.011,4.011,0,0,0-.77.41.708.708,0,0,1,.77-.41m1.471-5.154a6.055,6.055,0,0,1-2.24,3.439A6.718,6.718,0,0,0,102.7,32.78a4.326,4.326,0,0,1-3.57,2.35s-.348.011-.349.189.358.164.358.164,2.174.154,4.245-2.7a5.119,5.119,0,0,1-3.845,3.012,1.6,1.6,0,0,0-1.333,1.642,3.725,3.725,0,0,1-.572,2.163,3.563,3.563,0,0,1,3.2-.13h0v0a3.227,3.227,0,0,1,.345.182,1.838,1.838,0,0,1,1.21-.9,4.218,4.218,0,0,1,1.544-.038,2.686,2.686,0,0,0-2.684,1.382,1.966,1.966,0,0,0-.445-.321c-.02.232-.031.451-.035.66A4.936,4.936,0,0,1,103,40.082a3.7,3.7,0,0,1,2.081-.449,8.461,8.461,0,0,1-1.035-2.8c-.178-1.6-.11-6.163-2.187-9.009h0a5.8,5.8,0,0,1-.98,5.486,6.378,6.378,0,0,0,1.47-2.135" transform="translate(-52.881 -14.975)" fill="#000f9f"/>
    <path id="Path_6804" data-name="Path 6804" d="M111.42,64.554a4.066,4.066,0,0,0-3.018.307,2.851,2.851,0,0,1,.389.47c.066.1.125.192.181.28a3.058,3.058,0,0,1,2.245-.273,7.143,7.143,0,0,1,.2-.784" transform="translate(-58.712 -34.653)" fill="#000f9f"/>
    <path id="Path_6805" data-name="Path 6805" d="M109.191,56.9a2.43,2.43,0,0,0-1.944.878,3.516,3.516,0,0,0-2.432-.138,3.262,3.262,0,0,1,2.433-.244,2.2,2.2,0,0,1,1.944-.5m-1.707,1.78a5.429,5.429,0,0,0-2.059.07,3.411,3.411,0,0,1,2.018-.331,4.87,4.87,0,0,1,1.855-.252,3.968,3.968,0,0,0-1.814.513M104.223,56.9a3.536,3.536,0,0,0,.756,1.923,2.549,2.549,0,0,0-1.119.819,2.269,2.269,0,0,1,1.887.424,3.906,3.906,0,0,1,3.294-.352c.449-1.073,1.378-1.683,1.054-2.284-.17-.315-.566-.911-1-1.634l0,.007a4.476,4.476,0,0,0-2.335.78,4.26,4.26,0,0,0-2.539.317" transform="translate(-56.252 -30.024)" fill="#000f9f"/>
    <path id="Path_6806" data-name="Path 6806" d="M104.641,58.111h0c0-.02-.006-.041-.009-.062Z" transform="translate(-56.671 -31.238)" fill="#000f9f"/>
    <path id="Path_6807" data-name="Path 6807" d="M106.8,54.308a3.826,3.826,0,0,0-2.329.368c0,.275.019.528.044.761a3.687,3.687,0,0,1,2.51-.266,4.647,4.647,0,0,1,2.238-.793c-.134-.227-.269-.463-.4-.706a3.025,3.025,0,0,0-2.06.636" transform="translate(-56.58 -28.883)" fill="#000f9f"/>
    <path id="Path_6808" data-name="Path 6808" d="M109.928,67.087c.542.906.532,1.148,1.1.987.677-.191.83-.644.964-1.248a2.947,2.947,0,0,0-2.066.261" transform="translate(-59.539 -35.915)" fill="#000f9f"/>
    <path id="Path_6809" data-name="Path 6809" d="M96.871,26.7a4.8,4.8,0,0,0-4-3.537,3.931,3.931,0,0,1,4,3.537m-.367.3a.152.152,0,0,1-.217,0,.156.156,0,0,1-.045-.109.154.154,0,0,1,.153-.155h0a.155.155,0,0,1,.108.264M91,24.131a.974.974,0,0,1,1.156-.492A2.612,2.612,0,0,0,91,24.131m.622-.76a2.08,2.08,0,0,0-.89.457.777.777,0,0,1,.89-.457m3.912,4.124a.15.15,0,0,1-.108.045h0a.152.152,0,0,1-.108-.045.157.157,0,0,1-.045-.109.153.153,0,1,1,.307,0,.152.152,0,0,1-.045.109M95.2,23.356c-.052-.028-.106-.055-.16-.083l-.145-.073-.024-.012-.044-.018a3.863,3.863,0,0,0-4.2.215,4.281,4.281,0,0,0-1.045.957,25.314,25.314,0,0,1,5.712.929,3.575,3.575,0,0,0-2.177-1.351s3.218.091,2.836,3.786c0,.061-.009.1-.009.1,0-.034.006-.065.009-.1a3.855,3.855,0,0,0-.658-2.432c-.015.09-.8,4.722-.118,5.454.538.527,1.858-3.171,1.858-3.171a8.981,8.981,0,0,1-.516,2.321,4.416,4.416,0,0,0-.985-6.317l.017,0c-.121-.073-.239-.139-.356-.2" transform="translate(-48.52 -12.196)" fill="#000f9f"/>
    <path id="Path_6810" data-name="Path 6810" d="M26.883,47.664a2.146,2.146,0,0,1,.906-.734c.263-.09.007-.108.007-.108a.922.922,0,0,0-1,.808s-.037.224.089.033" transform="translate(-14.509 -25.196)" fill="#000f9f"/>
    <path id="Path_6811" data-name="Path 6811" d="M27.847,48.966a.071.071,0,0,0,.108.013l1.062-.986a.071.071,0,0,0-.008-.111.847.847,0,0,0-1.1.122.711.711,0,0,0-.061.962" transform="translate(-14.994 -25.687)" fill="#000f9f"/>
    <path id="Path_6812" data-name="Path 6812" d="M115.3,69.055a26.59,26.59,0,0,0,2.026-5.253s-1.719-1.048-2.5.442-.113,3.391-2.2,5.249a3.8,3.8,0,0,0-1.062,1.672c-.073.239.122.545.35.1.256-.5.914-1.63,2-1.637h0a1.76,1.76,0,0,0,1.387-.568" transform="translate(-60.414 -34.141)" fill="#000f9f"/>
    <path id="Path_6813" data-name="Path 6813" d="M110.624,82.378c-.141,1.086.343,1.068.314.583a4.125,4.125,0,0,1,.146-1.133c.061-.437-.328-.467-.46.55" transform="translate(-59.902 -43.88)" fill="#000f9f"/>
    <path id="Path_6814" data-name="Path 6814" d="M50.87,13.287c.693-.667-.1-1.84-3.017-2.557-2.12-.521-3.318.462-2.365.92l3.3,1.586s1.386.719,2.079.051" transform="translate(-24.458 -5.694)" fill="#000f9f"/>
    <path id="Path_6815" data-name="Path 6815" d="M32.631,6.629a.981.981,0,0,0-1.06.1l-.143-.1a1.6,1.6,0,0,0,.031-1.56c-.449-.811.273-1.042.224-.9-.066.189-.352.483.3,1.119a6.874,6.874,0,0,0,1.967,1.212s.347.175.7-.37S33.5,4.164,32.223,5.17a1.053,1.053,0,0,1-.214-.277,2.353,2.353,0,0,1,2.283-.755c1.011.308.929,1.7.929,1.7,2.56-1.123,5.295.165,5.947,1.315s.1,1.868-1.046,2.314a6.336,6.336,0,0,0-1.529.842.894.894,0,0,0-.6-.964Zm1.188,1.459c-.332.654-1.793.569-2.523-.356a1.866,1.866,0,0,1,.067-2.077,1.582,1.582,0,0,1-.023.441,1.415,1.415,0,0,0-.044.939.954.954,0,0,0,1.59.61c.445-.548,1.215-.113.933.443m15.337,1.918c.856.369.652-.164.748-.663s.353-.733.271-1.391a.777.777,0,0,1,.523-.846,3.056,3.056,0,0,1,.441-2.029S45.514,2.12,39.859,2.12c-9.568,0-11.623,3.84-12.011,4.334a2.14,2.14,0,0,1-1.576.65l11.8,4.711C42.416,7.489,48.3,9.637,49.156,10.006" transform="translate(-14.229 -1.141)" fill="#000f9f"/>
    <path id="Path_6816" data-name="Path 6816" d="M179.52,112.791a7.5,7.5,0,0,1-1.606.323s-.9.127-.9.342c0,.236,1.65.162,2.527.094s1.637.579,1.924.341-.023-.524-.344-.937a1.466,1.466,0,0,0-1.606-.163" transform="translate(-95.876 -60.612)" fill="#000f9f"/>
    <path id="Path_6817" data-name="Path 6817" d="M201,88.367a6.567,6.567,0,0,1-5.634-.241c2.581,2.555,4.888,1.711,7.033,1.64,1.822-.06,3,1.005,4.523,1.385a.061.061,0,0,0,.046-.112c-2.156-1.321-3.073-3.956-5.968-2.672" transform="translate(-105.813 -47.369)" fill="#000f9f"/>
    <path id="Path_6818" data-name="Path 6818" d="M115.867,16.763c-.006.562-.472.89-1.393.691-.876-.189-1.706-1.431-1.706-1.431a4.4,4.4,0,0,1-.76-1.643c-.072-.707.4-1.12,1.327-.791a5.244,5.244,0,0,1,2.532,3.174m2.12-2.81a1.051,1.051,0,0,1,.16,1.122l1.5,1.61-.816.086-1.2-1.326a1.507,1.507,0,0,1-.441.143l.832,1.271-.917.066-1.984-3.478c1.113-.113,2.413-.146,2.861.505m1.159-.516a1.984,1.984,0,0,1,1.9-.358l-.1.553c-.641-.13-1.115-.121-1.22.242-.077.267.225.45,1.355.642,1.359.231,1.982,1.382,1.057,1.94a2.121,2.121,0,0,1-2.034-.158l.275-.439c.634.248,1.333.3,1.37-.154s-.692-.509-1.6-.616c-.958-.113-1.678-.9-1.013-1.653m3.672-.285,1.108,1.924s.464.842.857.914c.752.139.485-.4.179-.842-.238-.342-1.205-1.871-1.205-1.871l.7.1s.83,1.275,1.015,1.54,1.061,1.348-.185,1.608a1.8,1.8,0,0,1-1.869-.925l-1.5-2.457Zm3.624.538,1.406,1.376.1-1.072.657.133,1.626,3.143-.821-.131-.928-1.767.08,1.2-.173-.022-1.408-1.393.91,1.569-.686-.047-1.742-3.137Zm-14.314,3.853L110.7,15.965a2.534,2.534,0,0,1-.591.154l1.046,1.413-.86-.009-2.967-4.174c2.26.233,2.77.238,3.527.985s.375,1.284.375,1.284l1.822,1.855Zm-5.474-.515-3.381-4.2s.993.043,2.041.164a1.882,1.882,0,0,1,1.786,1.456c.018.515-.8.969-.8.969l1.278,1.529Zm-8.069-6.62a6.092,6.092,0,0,1,.173,3.136c-.226.987,1.961,1.115,2.082,1.926S99.783,16,99.783,16s2.847,3.358,11,3.358c6.237,0,5.367-1.321,12.108-1.327,8.507-.008,6.276,1.734,12.8,2.144,4.015.253,5.41-.4,8.074-.293,0,0-7.405-.9-11.9-4.663-3.837-3.215-5.5-2.708-7.7-3.187-2.265-.494-3.832-1.478-9.866-.356s-12.756-.511-15.718-1.274" transform="translate(-53.395 -5.601)" fill="#000f9f"/>
    <path id="Path_6819" data-name="Path 6819" d="M120.62,18.517l1.028,1.372c.606-.042,1.037-.31.6-.86s-1.625-.512-1.625-.512" transform="translate(-65.33 -9.965)" fill="#000f9f"/>
    <path id="Path_6820" data-name="Path 6820" d="M113.59,17.969c.147-.3-.144-.672-.5-.841a5.323,5.323,0,0,0-1.19-.2l1.146,1.4a.784.784,0,0,0,.545-.363" transform="translate(-60.606 -9.11)" fill="#000f9f"/>
    <path id="Path_6821" data-name="Path 6821" d="M129.6,18.688c-.422.456,1.054,2.107,1.054,2.107s.514.629,1.057.476c.456-.129-.309-1.217-.64-1.643s-1.179-1.255-1.47-.94" transform="translate(-70.15 -10.019)" fill="#000f9f"/>
    <path id="Path_6822" data-name="Path 6822" d="M49.584,65.807a1.753,1.753,0,0,0,.9.9,3.57,3.57,0,0,1,.172-.6l.18-.439-.013.475a5.819,5.819,0,0,0,.026.7c.065.019.134.035.205.049a3.68,3.68,0,0,1,.1-.854l.118-.46.052.472a5.972,5.972,0,0,0,.174.9c.06,0,.121.006.183.006h.058a3.606,3.606,0,0,1-.144-1.032l.014-.474.155.448a5.947,5.947,0,0,0,.468,1.017,2.33,2.33,0,0,0,1.75-1.148c-.794-.072-1.511-.323-1.321-.809.135-.345.508-.313.974-.207a3.269,3.269,0,0,1,.087-.394l.138-.454.032.474c.01.158.028.31.049.448l.253.061a3.539,3.539,0,0,1,.032-.605l.075-.469.1.465a5.831,5.831,0,0,0,.188.684,2.862,2.862,0,0,0,.317.03,3.632,3.632,0,0,1-.151-.767l-.03-.474.2.432a5.874,5.874,0,0,0,.426.771A2.473,2.473,0,0,0,57,63.613c-1.22-.037-1.729-.327-1.617-.707.094-.32.407-.293.838-.225a3.414,3.414,0,0,1,.1-.511l.138-.454.031.474c.013.2.037.381.064.544.088.012.18.024.273.033a3.621,3.621,0,0,1,.024-.755l.075-.469.1.465a5.856,5.856,0,0,0,.218.772,2.451,2.451,0,0,0,.334-.033,3.629,3.629,0,0,1-.191-.886l-.03-.474.2.432a5.891,5.891,0,0,0,.449.806,2.65,2.65,0,0,0,1.255-1.16s-1.731-.132-1.6-.72c.071-.317.381-.278.778-.23a3.41,3.41,0,0,1,.046-.457l.088-.466.083.468c.031.176.07.341.11.489.067,0,.135.007.2.006a3.548,3.548,0,0,1-.041-.65l.023-.474.146.452a5.689,5.689,0,0,0,.247.63,1.241,1.241,0,0,0,.706-.471,21.064,21.064,0,0,1-.9-3.287,49.634,49.634,0,0,1-10.533,8.835.924.924,0,0,1,.274.653q.336-.2.691-.436" transform="translate(-26.333 -30.541)" fill="#000f9f"/>
    <path id="Path_6823" data-name="Path 6823" d="M178.95,80.915a.114.114,0,0,1-.09.044.109.109,0,0,1-.061-.018,9.112,9.112,0,0,0-3.1-1.336.105.105,0,0,1,0-.206c1.313-.3,2.708.854,3.247,1.364a.113.113,0,0,1,.012.152m.158,6.485a.091.091,0,0,1-.077.163,5,5,0,0,1-3.416-3.568.09.09,0,0,1,.164-.069,11.191,11.191,0,0,0,3.33,3.474m-4.554-6.5a.092.092,0,0,1,.077-.166,8.217,8.217,0,0,1,4.157,3.166.1.1,0,0,1-.143.125,31.8,31.8,0,0,0-4.092-3.124m-1.095.79a.106.106,0,0,1-.137.012,6.9,6.9,0,0,0-2.593-1.124.09.09,0,0,1-.083-.095c0-.079.088-.082.088-.082a3.052,3.052,0,0,1,2.736,1.15.109.109,0,0,1-.012.139m17.99.811a7.015,7.015,0,0,1-2.326-1.148c-1.127-.8-2.789-.112-3.669.2a6.028,6.028,0,0,1-6.141-1.373,9.521,9.521,0,0,0-9.407-1.326,6.455,6.455,0,0,1-3.448.745s.6,1.714,2.146,1.715,3.778-1.274,6.058,3.684,6.153,5.384,8.206,5c1.116-.208,1.552-.745,2.684-.164a1.635,1.635,0,0,0,2.052-.219.07.07,0,0,0-.075-.113,2.037,2.037,0,0,1-2-.5c-1.114-.932-1.305.191-3.262.19a2.652,2.652,0,0,1-1.1-.225.139.139,0,0,1,.062-.266,7.745,7.745,0,0,0,4.217-.986c.189-.109.366-.2.534-.284a7.2,7.2,0,0,1-6.8-1.47.086.086,0,0,1,.054-.152.084.084,0,0,1,.047.016h0a7.524,7.524,0,0,0,5.733,1.245l.005,0c2.487-.514,3.509.26,3.509.26a13.92,13.92,0,0,1,1.218.955,2.988,2.988,0,0,0,2.068.346.091.091,0,0,0,.021-.175,4.037,4.037,0,0,1-1.86-1.6c-1.072-1.569-2.18-2.18-5.768-1.88a6.473,6.473,0,0,1-5.377-2.629.127.127,0,0,1,.159-.192,8.435,8.435,0,0,0,3.765,1.083c2.2,0,2.953-.909,4.376-1.114,1.313-.188,2.169,1.157,4.313.531a.08.08,0,0,0,0-.155" transform="translate(-90.156 -42.065)" fill="#000f9f"/>
  </g>
</svg>
