<svg xmlns="http://www.w3.org/2000/svg" viewBox="0 0 43.665 12.163" height="278.571" width="1000" xmlns:v="https://vecta.io/nano"><path d="M0 12.164V0h43.665v12.164zm7.589-9.669l-1.455 5.51-1.455-5.51H3.327L5.51 9.772h1.248l2.183-7.277zm7.589 0h-1.767l-2.183 7.277h1.455l.447-1.767h2.225l.447 1.767h1.455zm10.188 6.03h-3.119v-6.03h-1.352v7.277h.728.624 3.119zm6.134-6.03l-1.455 5.51-1.455-5.51h-1.352l2.183 7.277h1.248l2.183-7.277zm7.485 4.055h-1.975V5.406h1.767V4.47h-1.767v-1.04h1.975v-.936h-1.975-1.04v4.99h1.04 1.975zM14.243 3.639l.821 3.223h-1.643z" fill="#f74843"/></svg>